<?xml version="1.0" encoding="UTF-8"?>
<svg xmlns="http://www.w3.org/2000/svg" width="128" height="128" viewBox="20 24 138 118" role="img" aria-labelledby="title desc">
  <title id="title">KISTI 캐릭터 키온 얼굴 아이콘</title>
  <desc id="desc">공식 KISTI 캐릭터 키온의 얼굴을 자른 행사 페이지 탭 아이콘</desc>
  <defs>
    <style>
      .cls-1 {
        fill: #f1636c;
      }

      .cls-2 {
        opacity: .44;
      }

      .cls-2, .cls-3 {
        fill: #fff;
      }

      .cls-4 {
        fill: #107ec2;
      }

      .cls-5 {
        fill: #007dc5;
      }

      .cls-6 {
        fill: #28b6ea;
      }

      .cls-7 {
        fill: #e0e222;
      }

      .cls-8 {
        isolation: isolate;
      }

      .cls-9 {
        fill: #f290b7;
      }

      .cls-10 {
        opacity: .24;
      }

      .cls-10, .cls-11 {
        fill: #26346f;
      }

      .cls-12 {
        fill: #3dc0f0;
      }

      .cls-13 {
        fill: #bcd431;
        mix-blend-mode: multiply;
      }

      .cls-14 {
        fill: #da2128;
      }

      .cls-15 {
        fill: #010101;
      }

      .cls-16 {
        fill: #f7cf2e;
      }
    </style>
  </defs>
  <g class="cls-8">
    <g id="Layer_2">
      <g id="Layer_1-2" data-name="Layer_1">
        <g>
          <g>
            <g>
              <path class="cls-3" d="M31.69,393.18c-3.97,7.19-5.04,12.62-1.55,13.9,3.91,1.44,6.24-7.89,6.66-10.08"/>
              <path class="cls-11" d="M30.95,408.32c-.39,0-.79-.07-1.18-.22-1.18-.43-2.04-1.28-2.47-2.45-1-2.68.16-7.05,3.45-13,.29-.53.96-.72,1.48-.43.53.29.72.96.43,1.48-2.84,5.14-4.05,9.22-3.31,11.18.21.58.59.94,1.18,1.16.37.13.69.1,1.05-.1,1.95-1.1,3.59-6.2,4.16-9.16.11-.59.69-.98,1.28-.87.59.11.98.69.87,1.28-.17.88-1.77,8.7-5.23,10.65-.54.31-1.12.46-1.7.46h0Z"/>
            </g>
            <g>
              <path class="cls-3" d="M75.97,393.18c3.97,7.19,5.04,12.62,1.55,13.9-3.91,1.44-6.24-7.89-6.66-10.08"/>
              <path class="cls-11" d="M76.72,408.32c-.58,0-1.15-.16-1.7-.46-3.46-1.95-5.06-9.77-5.23-10.65-.11-.59.27-1.17.87-1.28.59-.12,1.16.27,1.28.87.57,2.96,2.21,8.06,4.16,9.16.36.2.69.23,1.05.1.59-.22.97-.58,1.18-1.16.73-1.96-.47-6.04-3.31-11.18-.29-.53-.1-1.19.43-1.48.53-.29,1.19-.1,1.48.43,3.29,5.95,4.45,10.33,3.45,13-.44,1.17-1.29,2.01-2.47,2.45-.39.14-.79.22-1.18.22h0Z"/>
            </g>
          </g>
          <g>
            <g>
              <path class="cls-3" d="M47.2,370.75c.74-6-5.91-8.57-9.91-5.91-4.25,2.83-3.48,9.32.86,10.61"/>
              <path class="cls-11" d="M38.16,376.55c-.1,0-.21-.01-.31-.04-2.31-.69-3.99-2.71-4.38-5.27-.43-2.89.8-5.68,3.22-7.3,2.43-1.62,5.79-1.65,8.36-.07,2.42,1.5,3.6,4.05,3.24,7.01-.07.6-.61,1.02-1.22.95-.6-.07-1.02-.62-.95-1.22.35-2.84-1.24-4.28-2.22-4.89-1.83-1.13-4.29-1.12-6,.02-2.04,1.36-2.51,3.56-2.27,5.16.26,1.74,1.32,3.05,2.84,3.5.58.17.91.78.74,1.36-.14.47-.58.78-1.05.78h0Z"/>
            </g>
            <g>
              <path class="cls-3" d="M60.11,370.75c-.74-6,5.91-8.57,9.91-5.91,4.24,2.83,3.48,9.32-.86,10.61"/>
              <path class="cls-11" d="M69.16,376.55c-.47,0-.91-.31-1.05-.78-.17-.58.16-1.19.74-1.36,1.52-.45,2.58-1.76,2.84-3.5.24-1.6-.23-3.79-2.27-5.16-1.71-1.14-4.18-1.15-6-.02-.98.6-2.57,2.04-2.22,4.89.07.6-.35,1.14-.95,1.22-.61.07-1.14-.35-1.22-.95-.37-2.96.81-5.52,3.24-7.01,2.57-1.58,5.92-1.56,8.36.06,2.42,1.61,3.66,4.41,3.22,7.3-.39,2.56-2.06,4.58-4.38,5.27-.1.03-.21.04-.31.04h0Z"/>
            </g>
          </g>
          <path class="cls-7" d="M53.83,369.07c-12.28,0-22.23,9.95-22.23,22.23,0,20.04,20.76,33.15,22.23,33.15s22.23-13.1,22.23-33.15c0-12.28-9.95-22.23-22.23-22.23Z"/>
          <path class="cls-13" d="M53.83,369.07v55.38c1.47,0,22.23-13.1,22.23-33.15,0-12.28-9.95-22.23-22.23-22.23Z"/>
          <path class="cls-11" d="M53.83,425.54c-1.97,0-23.32-13.62-23.32-34.24,0-12.86,10.46-23.32,23.32-23.32s23.32,10.46,23.32,23.32c0,20.62-21.36,34.24-23.32,34.24h0ZM53.83,370.16c-11.66,0-21.14,9.48-21.14,21.14,0,18.73,18.86,31.08,21.14,32.02,2.27-.94,21.14-13.29,21.14-32.02,0-11.66-9.48-21.14-21.14-21.14h0Z"/>
          <path class="cls-3" d="M70.45,391.3c0,9.18-7.44,16.62-16.62,16.62s-16.62-7.44-16.62-16.62,7.44-16.62,16.62-16.62,16.62,7.44,16.62,16.62Z"/>
          <g>
            <g>
              <polygon class="cls-14" points="53.87 378.41 49.53 390.46 58.21 390.46 53.87 378.41"/>
              <polygon class="cls-5" points="49.53 390.46 53.87 402.52 58.21 390.46 49.53 390.46"/>
              <path class="cls-11" d="M53.87,403.45h0c-.39,0-.75-.25-.88-.62l-4.34-12.05c-.07-.21-.07-.43,0-.63l4.34-12.05c.13-.37.49-.62.88-.62s.75.25.88.62l4.34,12.05c.07.21.07.43,0,.63l-4.34,12.05c-.13.37-.49.62-.88.62h0ZM50.53,390.46l3.34,9.29,3.35-9.29-3.35-9.29-3.34,9.29h0Z"/>
            </g>
            <g>
              <path class="cls-11" d="M45.8,384.83c-.93.03-1.28,1.2-1.24,2.36.04,1.16.67,1.52,1.29,1.5.62-.02.98-.96.94-2.12-.04-1.16-.29-1.77-.98-1.75Z"/>
              <path class="cls-11" d="M45.8,389.64c-.96,0-2.11-.63-2.17-2.41-.02-.68.05-1.93.79-2.72.36-.39.83-.6,1.36-.61h0c1.26,0,1.89.89,1.95,2.65.02.64-.04,1.84-.73,2.56-.31.33-.69.51-1.12.52,0,0-.07,0-.08,0h0ZM45.8,387.77v.94l.02-.94s-.01,0-.02,0h0ZM45.76,385.84c-.13.17-.29.62-.26,1.33.01.4.1.53.19.58.08-.17.18-.56.16-1.13-.01-.4-.05-.64-.09-.77h0Z"/>
            </g>
            <g>
              <path class="cls-11" d="M62.11,384.83c-.93.03-1.28,1.2-1.24,2.36.04,1.16.67,1.52,1.29,1.5.62-.02.97-.96.94-2.12-.04-1.16-.29-1.77-.99-1.75Z"/>
              <path class="cls-11" d="M62.11,389.64c-.97,0-2.12-.63-2.17-2.41-.02-.68.05-1.93.79-2.72.36-.39.83-.6,1.35-.61h0c1.26,0,1.89.89,1.95,2.65.02.65-.05,1.84-.73,2.57-.31.33-.69.51-1.12.52,0,0-.07,0-.08,0h0ZM62.11,387.77v.94l.02-.94s-.01,0-.02,0h0ZM62.07,385.84c-.13.17-.29.62-.27,1.33.01.4.1.53.19.58.08-.17.18-.56.17-1.13-.01-.4-.05-.64-.09-.77h0Z"/>
            </g>
          </g>
        </g>
        <g>
          <path class="cls-7" d="M195.76,368.3c-8.95,0-16.2,9.95-16.2,22.23,0,20.04,15.13,33.15,16.2,33.15s16.21-13.1,16.21-33.15c0-12.28-7.25-22.23-16.21-22.23Z"/>
          <path class="cls-3" d="M179.57,390.53c0,6.28,1.49,11.87,3.56,16.6.08,0,.17.02.25.02,3.71,0,6.71-7.44,6.71-16.62,0-8.02-2.29-14.72-5.35-16.28-3.18,4.06-5.17,9.85-5.17,16.28Z"/>
          <polygon class="cls-14" points="182.12 377.96 179.57 389.7 183.09 389.7 182.12 377.96"/>
          <polygon class="cls-5" points="179.11 389.7 181.21 401.75 183.09 389.7 179.11 389.7"/>
          <path class="cls-13" d="M195.76,368.3v55.38c1.07,0,16.21-13.1,16.21-33.15,0-12.28-7.25-22.23-16.21-22.23Z"/>
          <path class="cls-11" d="M195.76,424.78c-1.7,0-11.49-8.88-15.51-22.26-1.18-3.93-1.78-7.96-1.78-11.98,0-4.23.84-8.38,2.44-11.98,3.15-7.1,8.7-11.34,14.85-11.34,9.54,0,17.3,10.46,17.3,23.32,0,20.38-15.14,34.24-17.3,34.24h0ZM195.76,369.4c-5.26,0-10.07,3.76-12.86,10.05-1.48,3.33-2.26,7.16-2.26,11.09s.57,7.63,1.69,11.36c3.48,11.56,11.45,19.26,13.42,20.58,2.37-1.63,15.12-13.65,15.12-31.94,0-11.66-6.78-21.14-15.11-21.14h0Z"/>
          <path class="cls-11" d="M181.21,402.68s-.1,0-.15-.01c-.51-.08-.86-.56-.78-1.07l1.92-11.93-1.12-11.14c-.05-.51.32-.97.84-1.03.52-.05.97.32,1.03.84l1.13,11.26c0,.08,0,.16,0,.24l-1.94,12.05c-.07.46-.47.79-.92.79h0Z"/>
          <g>
            <path class="cls-11" d="M185.66,384.07c-.45.03-.62,1.2-.6,2.36.02,1.16.32,1.53.62,1.51.3-.02.47-.96.46-2.12-.02-1.16-.14-1.77-.48-1.75Z"/>
            <path class="cls-11" d="M185.66,388.87c-.45,0-1.5-.24-1.53-2.43-.04-2.13.46-3.24,1.47-3.31h0c1.43,0,1.46,1.73,1.47,2.67.03,2.03-.39,3.01-1.33,3.07-.02,0-.07,0-.09,0h0Z"/>
          </g>
          <g>
            <path class="cls-3" d="M193.6,369.98c-.19-6,1.47-8.57,2.46-5.91,1.06,2.83.86,9.32-.21,10.61"/>
            <path class="cls-11" d="M195.84,375.79c-.25,0-.49-.08-.7-.25-.46-.39-.53-1.08-.14-1.54.63-.77,1.05-6.24.15-9.17-.28.93-.54,2.62-.46,5.13.02.6-.46,1.11-1.06,1.13-.63-.01-1.11-.46-1.13-1.06-.05-1.77-.04-7.58,2.37-8.05.54-.1,1.55-.02,2.2,1.73,1.1,2.94,1.05,9.95-.4,11.69-.22.26-.53.39-.84.39h0Z"/>
          </g>
          <g>
            <path class="cls-3" d="M198.04,393.83c.56,8.78.64,12.94-2.07,13.07-3.03.15-2.54-10.07-2.34-12.28"/>
            <path class="cls-11" d="M195.9,407.99c-.66,0-1.26-.27-1.75-.78-2.5-2.6-1.65-12.28-1.62-12.69.06-.6.56-1.04,1.19-.99.6.05,1.04.59.99,1.19-.34,3.8-.18,9.74,1.02,10.99.1.11.15.1.18.1.34-.02.48-.13.59-.25,1.11-1.25.75-6.78.44-11.66-.04-.6.42-1.12,1.02-1.16.61-.02,1.12.42,1.16,1.02.51,7.87.57,11.51-.99,13.25-.54.61-1.25.94-2.11.98-.04,0-.08,0-.12,0h0Z"/>
          </g>
        </g>
        <g>
          <g>
            <g>
              <path class="cls-3" d="M289.52,393.18c3.97,7.19,5.04,12.62,1.55,13.9-3.91,1.44-6.24-7.89-6.67-10.08"/>
              <path class="cls-11" d="M290.27,408.32c-.58,0-1.15-.16-1.7-.46-3.46-1.96-5.06-9.77-5.23-10.65-.11-.59.27-1.17.87-1.28.6-.12,1.17.27,1.28.87.57,2.96,2.21,8.06,4.16,9.16.36.2.69.23,1.05.1.59-.22.97-.58,1.18-1.16.73-1.97-.47-6.04-3.32-11.18-.29-.53-.1-1.19.43-1.48.53-.29,1.19-.1,1.48.43,3.29,5.95,4.45,10.33,3.45,13-.44,1.17-1.29,2.01-2.47,2.45-.39.14-.79.22-1.18.22h0Z"/>
            </g>
            <g>
              <path class="cls-3" d="M245.25,393.18c-3.97,7.19-5.04,12.62-1.55,13.9,3.91,1.44,6.24-7.89,6.67-10.08"/>
              <path class="cls-11" d="M244.5,408.32c-.39,0-.79-.07-1.18-.21-1.18-.43-2.04-1.28-2.47-2.45-1-2.68.16-7.05,3.45-13,.29-.53.95-.72,1.48-.43.53.29.72.96.43,1.48-2.84,5.14-4.05,9.22-3.32,11.18.21.58.59.94,1.18,1.16.37.14.7.11,1.06-.1,1.96-1.1,3.59-6.2,4.16-9.16.11-.59.68-.98,1.28-.87.59.11.98.69.87,1.28-.17.88-1.77,8.69-5.23,10.65-.55.31-1.12.46-1.7.46h0Z"/>
            </g>
          </g>
          <path class="cls-7" d="M267.39,369.07c12.28,0,22.23,9.95,22.23,22.23,0,20.04-20.76,33.15-22.23,33.15s-22.23-13.1-22.23-33.15c0-12.28,9.95-22.23,22.23-22.23Z"/>
          <path class="cls-13" d="M267.39,369.07v55.38c-1.47,0-22.23-13.1-22.23-33.15,0-12.28,9.95-22.23,22.23-22.23Z"/>
          <path class="cls-11" d="M267.39,425.54c-1.97,0-23.32-13.62-23.32-34.24,0-12.86,10.46-23.32,23.32-23.32s23.32,10.46,23.32,23.32c0,20.62-21.36,34.24-23.32,34.24h0ZM267.39,370.16c-11.66,0-21.14,9.48-21.14,21.14,0,18.73,18.86,31.08,21.14,32.02,2.28-.94,21.14-13.29,21.14-32.02,0-11.66-9.48-21.14-21.14-21.14h0Z"/>
          <g>
            <g>
              <path class="cls-3" d="M274.01,371.07c-.74-6,5.91-8.88,9.91-6.22,4.24,2.83,3.74,10.03-1.49,11.55"/>
              <path class="cls-11" d="M282.44,377.49c-.47,0-.91-.31-1.05-.79-.17-.58.16-1.18.74-1.35,1.87-.55,3.17-2.07,3.48-4.08.34-2.19-.56-4.36-2.29-5.51-1.66-1.1-4.01-1.08-5.85.05-1.78,1.1-2.64,2.96-2.37,5.12.07.6-.35,1.14-.95,1.22-.61.07-1.14-.35-1.22-.95-.37-3,.9-5.71,3.4-7.25,2.55-1.57,5.85-1.58,8.2,0,2.43,1.62,3.7,4.63,3.24,7.66-.44,2.87-2.32,5.06-5.03,5.85-.1.03-.21.04-.31.04h0Z"/>
            </g>
            <g>
              <path class="cls-3" d="M261.11,371.07c.74-6-5.91-8.88-9.91-6.22-4.24,2.83-3.68,9.4,1.17,11.55"/>
              <path class="cls-11" d="M252.37,377.49c-.15,0-.3-.03-.44-.09-2.67-1.18-4.4-3.61-4.65-6.49-.24-2.82,1-5.42,3.32-6.97,2.35-1.57,5.65-1.57,8.2,0,2.5,1.54,3.77,4.25,3.4,7.25-.07.6-.61,1.03-1.22.95-.6-.07-1.02-.62-.95-1.22.27-2.16-.6-4.03-2.38-5.13-1.84-1.14-4.19-1.15-5.84-.05-1.64,1.1-2.52,2.95-2.35,4.96.18,2.08,1.43,3.83,3.36,4.68.55.24.8.89.56,1.44-.18.41-.58.65-1,.65h0Z"/>
            </g>
          </g>
        </g>
        <g>
          <g>
            <path class="cls-3" d="M108.08,393.74c-3.97,7.19-5.04,12.31-1.55,13.59,3.91,1.43,6.24-7.9,6.66-10.08"/>
            <path class="cls-11" d="M107.34,408.57c-.39,0-.79-.07-1.18-.21-1.2-.44-2.06-1.28-2.49-2.44-.96-2.58.17-6.74,3.46-12.7.29-.53.95-.72,1.48-.43.53.29.72.96.43,1.48-3.84,6.95-3.73,9.8-3.33,10.88.21.56.59.93,1.2,1.15.37.13.69.11,1.05-.1,1.95-1.1,3.59-6.21,4.16-9.16.12-.59.68-.98,1.28-.86.59.12.98.69.86,1.28-.17.88-1.78,8.7-5.23,10.65-.54.31-1.12.46-1.7.46h0Z"/>
          </g>
          <g>
            <path class="cls-3" d="M134.03,371.07c-.74-6,5.6-8.57,9.6-5.91,4.24,2.83,3.48,9.95-.86,11.24"/>
            <path class="cls-11" d="M142.76,377.49c-.47,0-.91-.31-1.05-.78-.17-.58.16-1.19.74-1.36,1.49-.44,2.54-1.83,2.83-3.72.34-2.24-.55-4.42-2.26-5.56-1.69-1.12-3.99-1.16-5.73-.08-.97.6-2.53,2.03-2.17,4.95.07.6-.35,1.14-.95,1.22-.61.08-1.14-.35-1.22-.95-.37-3.01.79-5.59,3.2-7.07,2.46-1.52,5.71-1.46,8.09.12,2.41,1.61,3.67,4.63,3.21,7.71-.41,2.7-2.08,4.81-4.36,5.49-.1.03-.21.04-.31.04h0Z"/>
          </g>
          <g>
            <path class="cls-3" d="M123.45,370.82c.7-6-5.59-8.57-9.37-5.91-4.01,2.83-3.29,9.32.81,10.61"/>
            <path class="cls-11" d="M114.9,376.62c-.11,0-.22-.02-.33-.05-2.2-.69-3.75-2.63-4.15-5.18-.45-2.91.71-5.73,3.04-7.37,2.23-1.57,5.35-1.66,7.76-.22,2.43,1.45,3.67,4.12,3.32,7.15-.07.6-.62,1.02-1.21.96-.6-.07-1.03-.61-.96-1.21.25-2.18-.57-4.01-2.27-5.02-1.69-1-3.85-.95-5.39.13-1.96,1.38-2.39,3.62-2.13,5.25.27,1.71,1.25,2.99,2.65,3.43.58.18.89.79.71,1.37-.15.47-.58.76-1.04.76h0Z"/>
          </g>
          <path class="cls-7" d="M127.37,369.07c-12.28,0-22.23,9.95-22.23,22.23,0,20.04,20.76,33.15,22.23,33.15s22.23-13.1,22.23-33.15c0-12.28-9.96-22.23-22.23-22.23Z"/>
          <path class="cls-13" d="M127.93,369.08c12.28,0,21.68,9.94,21.68,22.22,0,20.04-20.76,33.15-22.23,33.15,0,0-7.37-8.32-8.34-28.61-1.09-22.63,8.9-26.76,8.9-26.76Z"/>
          <path class="cls-11" d="M127.37,425.54c-2.02,0-23.01-13.4-23.01-34.93,0-12.91,9.78-22.64,22.74-22.64,13.61.01,23.47,10.34,23.47,24.57,0,20.79-21.09,32.99-23.2,32.99h0ZM127.12,370.16c-11.74,0-20.58,8.79-20.58,20.45,0,19.54,18.52,31.8,20.84,32.71,2.34-.82,21-12.08,21-30.78,0-13.17-8.74-22.38-21.26-22.39h0Z"/>
          <path class="cls-3" d="M137.91,391.3c0,9.18-6.9,16.62-15.41,16.62-7.64,0-14.79-7.44-14.79-16.62s7.15-16.62,14.79-16.62c8.51,0,15.41,7.44,15.41,16.62Z"/>
          <g>
            <g>
              <polygon class="cls-14" points="120.9 378.72 115.94 390.15 123.06 390.77 120.9 378.72"/>
              <polygon class="cls-5" points="115.94 389.84 119.66 402.2 123.06 390.15 115.94 389.84"/>
              <path class="cls-11" d="M119.66,403.45c-.4,0-.75-.25-.88-.63-.36-1.05-3.53-10.34-3.53-12.96,0-2.33,4.29-10.32,5.15-11.9.19-.35.57-.55.98-.47.39.07.7.38.76.78l1.82,11.74c.02.13.01.26-.02.39l-3.38,12.37c-.11.4-.46.67-.87.69h-.03ZM120.72,381.34c-1.78,3.47-3.61,7.43-3.61,8.52,0,1.45,1.36,6.03,2.46,9.42l2.51-9.19-1.36-8.75h0Z"/>
            </g>
            <g>
              <path class="cls-11" d="M112.84,384.83c-.93.03-1.28,1.2-1.24,2.36.04,1.16.67,1.52,1.29,1.5.62-.02.98-.96.94-2.12-.04-1.16-.29-1.77-.99-1.75Z"/>
              <path class="cls-11" d="M112.84,389.64c-.96,0-2.11-.63-2.17-2.41-.02-.68.05-1.93.79-2.72.36-.39.83-.6,1.36-.61h0c1.26,0,1.89.89,1.95,2.65.02.65-.05,1.84-.73,2.57-.31.33-.69.51-1.12.52,0,0-.07,0-.08,0h0ZM112.84,387.77v.94l.02-.94s-.01,0-.02,0h0ZM112.8,385.84c-.13.17-.29.62-.27,1.33.01.4.1.53.19.58.08-.17.18-.56.17-1.13-.01-.4-.05-.64-.09-.77h0Z"/>
            </g>
            <g>
              <path class="cls-11" d="M128.52,384.83c-.93.03-1.28,1.2-1.24,2.36.04,1.16.67,1.52,1.29,1.5.62-.02.98-.96.94-2.12-.04-1.16-.29-1.77-.99-1.75Z"/>
              <path class="cls-11" d="M128.52,389.64c-.97,0-2.11-.63-2.17-2.41-.02-.68.05-1.93.79-2.71.36-.39.83-.6,1.36-.61h0c1.26,0,1.89.89,1.95,2.65.02.65-.04,1.84-.73,2.56-.31.33-.69.51-1.12.52,0,0-.07,0-.08,0h0ZM128.52,387.77v.94l.02-.94s-.01,0-.02,0h0ZM128.48,385.84c-.13.17-.29.62-.26,1.33.01.4.1.53.19.58.08-.17.18-.56.17-1.13-.01-.4-.05-.64-.09-.77h0Z"/>
            </g>
          </g>
          <g>
            <path class="cls-3" d="M146.79,393.43c3.66,7.07,5.09,12.45,1.55,13.59-3.51,1.13-6.24-7.9-6.66-10.08"/>
            <path class="cls-11" d="M147.74,408.2c-.58,0-1.15-.17-1.7-.49-3.14-1.86-5.11-8.92-5.43-10.57-.11-.59.27-1.16.86-1.28.6-.12,1.17.27,1.28.86.4,2.09,2.31,7.87,4.39,9.1.41.24.68.2.86.14.54-.17.88-.46,1.07-.94.5-1.22.35-4.14-3.26-11.1-.28-.54-.07-1.19.47-1.47.53-.28,1.19-.07,1.47.47,3.3,6.37,4.36,10.48,3.34,12.94-.44,1.06-1.28,1.82-2.42,2.19-.31.1-.62.15-.94.15h0Z"/>
          </g>
        </g>
        <g>
          <g>
            <g>
              <g>
                <path class="cls-3" d="M66.52,39.95c-1.21-8.26-14.2-21.34-21.82-19.88-6.3,1.21-16.73,28.85-13.31,47.32"/>
                <path class="cls-11" d="M31.4,68.49c-.52,0-.98-.37-1.07-.89-3.53-19.02,7.15-47.24,14.17-48.59,3.67-.7,7.73,1.49,10.49,3.45,6.41,4.55,11.83,12.01,12.61,17.34.09.6-.33,1.15-.92,1.24-.6.08-1.15-.33-1.24-.92-.69-4.73-5.84-11.7-11.71-15.88-3.42-2.43-6.55-3.52-8.82-3.09-5.42,1.04-15.82,27.79-12.44,46.05.11.59-.28,1.16-.87,1.27-.07.01-.13.02-.2.02h0Z"/>
              </g>
              <path class="cls-10" d="M62.76,31.81c-11.24,1.93-25.13,10.51-31.86,23.22-.44,4.71-.28,8.18.5,12.36l35.12-27.44c-.38-2.62-1.55-5.17-3.76-8.14Z"/>
              <g>
                <path class="cls-3" d="M98.25,39.95c1.21-8.26,14.2-21.34,21.82-19.88,6.3,1.21,16.73,28.85,13.3,47.32"/>
                <path class="cls-11" d="M133.37,68.49c-.07,0-.13,0-.2-.02-.59-.11-.98-.68-.87-1.27,3.39-18.26-7.01-45-12.44-46.05-2.28-.44-5.41.66-8.82,3.09-5.87,4.17-11.02,11.15-11.71,15.87-.09.6-.63,1.01-1.24.92-.6-.09-1.01-.64-.92-1.24.78-5.33,6.2-12.79,12.6-17.34,2.76-1.96,6.83-4.16,10.5-3.45,7.03,1.35,17.7,29.57,14.17,48.59-.1.53-.56.89-1.07.89h0Z"/>
              </g>
              <path class="cls-10" d="M101.71,32.24c11.43,2.21,25.55,10.33,32.15,22.64.44,4.71.29,8.33-.49,12.52l-35.12-27.44c.38-2.62,1.25-4.75,3.46-7.72Z"/>
            </g>
            <g>
              <g>
                <path class="cls-3" d="M69.98,120.29h-6.25s-8.44,15.27-10.47,27.92c-2.04,12.65,7.56,16,11.34,12.65,3.78-3.35,1.75-21.09,3.34-27.49"/>
                <path class="cls-11" d="M61.14,163.18c-1.3,0-2.67-.35-3.94-1.05-4.19-2.31-6.07-7.58-5.02-14.1,2.04-12.69,10.25-27.65,10.59-28.28.19-.35.56-.56.96-.56h6.25c.6,0,1.09.49,1.09,1.09s-.49,1.09-1.09,1.09h-5.6c-1.52,2.86-8.28,16.04-10.05,27-.9,5.57.57,9.99,3.92,11.84,1.97,1.08,4.28,1.01,5.62-.17,1.96-1.73,2.09-9.45,2.21-15.65.08-4.47.15-8.69.8-11.29.15-.59.74-.94,1.32-.79.59.15.94.74.8,1.32-.59,2.36-.66,6.46-.74,10.8-.14,7.65-.26,14.88-2.94,17.25-1.12.99-2.61,1.5-4.18,1.5h0Z"/>
              </g>
              <g>
                <path class="cls-3" d="M94.79,120.29h6.25s8.44,15.27,10.47,27.92c2.04,12.65-7.56,16-11.34,12.65-3.78-3.35-1.75-21.09-3.34-27.49"/>
                <path class="cls-11" d="M103.62,163.18c-1.57,0-3.06-.5-4.18-1.5-2.68-2.37-2.81-9.6-2.94-17.25-.08-4.34-.15-8.44-.74-10.79-.15-.58.21-1.18.8-1.32.58-.14,1.18.21,1.32.79.65,2.6.72,6.82.8,11.28.11,6.2.25,13.92,2.21,15.65,1.34,1.19,3.65,1.26,5.62.17,3.35-1.84,4.81-6.27,3.92-11.84-1.76-10.97-8.53-24.14-10.04-27h-5.6c-.6,0-1.09-.49-1.09-1.09s.49-1.09,1.09-1.09h6.25c.4,0,.76.22.96.56.35.63,8.55,15.58,10.59,28.28,1.05,6.52-.83,11.79-5.02,14.1-1.27.7-2.64,1.05-3.94,1.05h0Z"/>
              </g>
            </g>
            <path class="cls-3" d="M98.62,119.57s6.15,17.43,4.27,33.15c-1.47,12.29-6.83,28.43-6.83,28.43,0,0-4.79,2.73-11.62-.34,0,0,.17-14.42-2.05-14.42s-2.05,14.42-2.05,14.42c-6.84,3.08-11.62.34-11.62.34,0,0-5.37-16.14-6.84-28.43-1.88-15.72,4.27-33.15,4.27-33.15"/>
            <path class="cls-11" d="M90.9,183.37c-1.94,0-4.29-.38-6.91-1.56-.4-.18-.65-.57-.64-1.01.06-4.97-.31-10.68-.96-12.74-.65,2.06-1.02,7.77-.96,12.73,0,.43-.25.83-.64,1.01-7.26,3.27-12.4.42-12.61.3-.23-.13-.41-.35-.5-.6-.05-.16-5.42-16.38-6.89-28.65-.98-8.24.23-16.91,1.43-22.73.12-.59.7-.97,1.29-.85.59.12.97.7.85,1.29-1.16,5.66-2.35,14.08-1.4,22.03,1.31,10.93,5.79,25.14,6.65,27.78,1.11.49,4.7,1.7,9.63-.28-.02-3.65.14-12.44,1.93-14.25.44-.44.9-.54,1.22-.54s.78.09,1.22.54c1.79,1.81,1.95,10.6,1.93,14.25,4.92,1.98,8.51.77,9.63.28.86-2.65,5.34-16.85,6.64-27.78,1.01-8.44-.37-17.42-1.7-23.46-.13-.59.24-1.17.83-1.3.59-.13,1.17.24,1.3.83,1.37,6.21,2.78,15.45,1.74,24.19-1.46,12.26-6.83,28.48-6.88,28.64-.08.26-.26.47-.5.6-.14.08-2.28,1.27-5.7,1.27h0Z"/>
            <path class="cls-10" d="M102.66,140.24c-.22,0-.44-.09-.6-.28-3.04-3.61-10.58-9.72-19.58-9.72s-16.43,5-20.25,9.68c-.27.33-.77.38-1.1.11-.33-.27-.38-.76-.11-1.1,4.05-4.96,11.81-10.25,21.46-10.25s17.56,6.46,20.77,10.27c.28.33.24.82-.09,1.1-.15.12-.32.18-.5.18h0Z"/>
            <g>
              <rect class="cls-5" x="78.96" y="141.91" width="1.75" height="4.54"/>
              <polygon class="cls-5" points="88.59 141.38 88.59 146.45 86.82 146.45 86.82 141.38 85.44 141.38 85.44 139.67 89.96 139.67 89.96 141.38 88.59 141.38"/>
              <rect class="cls-5" x="90.57" y="141.91" width="1.75" height="4.54"/>
              <path class="cls-5" d="M80.94,140.5c0,.61-.5,1.11-1.11,1.11s-1.11-.5-1.11-1.11.5-1.11,1.11-1.11,1.11.5,1.11,1.11"/>
              <path class="cls-14" d="M79.04,147.68c3.5-1.4,6.8-3.26,6.8-4.65,0-.7-.46-1.12-1.64-1.26-.76-.09-1.63-.01-1.48-.7.15-.67,1.86-1.29,2.72-1.4v-1.38c-2.3.79-4.36,1.81-4.36,3.29,0,.71.43,1.46,1.63,1.57,1.16.1,1.41.42,1.41.86,0,.87-2.18,2.27-5.08,3.67"/>
              <path class="cls-5" d="M92.54,140.5c0,.61-.5,1.11-1.11,1.11s-1.11-.5-1.11-1.11.5-1.11,1.11-1.11,1.11.5,1.11,1.11"/>
              <path class="cls-5" d="M70.12,148.84c-.71-1.29,2.52-4.17,2.52-4.17-3.06,2.23-4.23,3.98-3.73,4.82.58.98,4.03.84,9.26-1.45-4.2,1.63-7.53,1.74-8.05.8"/>
              <path class="cls-5" d="M94.02,136.54c-.93-1.52-6.01-.54-12.88,3.01,5.81-2.64,10.96-3.74,11.95-2.37.32.45.21,1.34-.56,2.45.66-.64,1.95-2.32,1.48-3.09"/>
              <polygon class="cls-5" points="73.13 146.45 73.13 139.67 74.88 139.67 74.88 142.68 76.35 139.67 78.38 139.67 76.73 142.76 78.42 146.45 76.47 146.45 74.88 142.84 74.88 146.45 73.13 146.45"/>
            </g>
            <g>
              <path class="cls-3" d="M81.34,33.34c-32.45,0-53.31,21.22-53.31,46.32,0,29.34,19.14,45.02,55.91,45.02,34.5,0,52.8-18.5,52.8-45.02s-23.57-46.32-55.39-46.32Z"/>
              <path class="cls-11" d="M102.21,123.75c-.49,0-.94-.34-1.06-.84-.14-.59.22-1.18.8-1.32,21.41-5.18,33.69-20.46,33.69-41.94,0-25.78-23.34-45.23-54.3-45.23s-52.22,19.02-52.22,45.23c0,22.12,11.67,36.55,33.75,41.72.59.14.95.72.81,1.31-.14.59-.72.96-1.31.81-23.18-5.43-35.43-20.59-35.43-43.85,0-12.81,5.27-24.66,14.85-33.38,9.94-9.05,23.99-14.03,39.56-14.03,32.2,0,56.48,20.38,56.48,47.41,0,22.57-12.89,38.63-35.36,44.06-.09.02-.17.03-.26.03h0Z"/>
              <path class="cls-6" d="M114.74,105.49c11.57-6.96,15.32-38.03,1.09-48.47-9.82-7.21-58.8-7.98-67.46,0-13.05,12.02-10.78,42.11,1.09,48.47,14.97,8.02,54.62,6.42,65.29,0Z"/>
              <path class="cls-2" d="M99.18,52.2c-19.93-2.6-44.91-.98-50.73,4.4-12.02,11.11-11.17,36.27-2.73,45.55-1.47-11.48,1.32-22.15,8.76-31.63,16.26-20.71,44.7-18.33,44.7-18.33Z"/>
              <path class="cls-1" d="M54.69,72.74c-4.51,0-6.4,2.58-6.23,4.95.22,3.01,3.44,4.73,7.31,4.73s6.91-1.94,6.66-5.59c-.21-3.15-4.3-4.09-7.74-4.09Z"/>
              <path class="cls-1" d="M108.68,73.59c-4.51,0-6.4,2.58-6.23,4.95.21,3.01,3.44,4.72,7.31,4.72s6.91-1.94,6.66-5.59c-.21-3.15-4.3-4.08-7.74-4.08Z"/>
              <g>
                <path class="cls-11" d="M75.46,65.59c-2.11,0-2.68,2.44-2.68,6.11s1.34,4.68,2.87,4.68,1.91-2.44,1.91-5.09-.57-5.7-2.11-5.7Z"/>
                <path class="cls-11" d="M75.65,77.47c-1.48,0-3.96-.75-3.96-5.77,0-2.15,0-7.2,3.77-7.2,2,0,3.2,2.54,3.2,6.79,0,1.53,0,6.18-3.01,6.18h0ZM75.46,66.68c-.43,0-1.59,0-1.59,5.01,0,3.59,1.29,3.59,1.78,3.59.17,0,.82-.68.82-4,0-3.03-.72-4.5-1.01-4.61h0Z"/>
              </g>
              <g>
                <path class="cls-11" d="M89.28,65.79c-2.1,0-2.68,2.44-2.68,6.11s1.34,4.68,2.87,4.68,1.91-2.44,1.91-5.09-.57-5.7-2.1-5.7Z"/>
                <path class="cls-11" d="M89.47,77.68c-1.48,0-3.96-.75-3.96-5.77,0-2.15,0-7.2,3.77-7.2,2,0,3.2,2.54,3.2,6.79,0,1.53,0,6.18-3,6.18h0ZM89.28,66.88c-.39,0-1.59,0-1.59,5.02,0,3.59,1.29,3.59,1.78,3.59.17,0,.82-.68.82-4,0-3.03-.71-4.5-1.01-4.61h0Z"/>
              </g>
            </g>
            <path class="cls-11" d="M82.53,91.83c-.26,0-.52,0-.79-.01-9.77-.34-12.69-5.97-13.49-8.38-.19-.57.12-1.19.69-1.38.57-.19,1.19.12,1.38.69.82,2.45,3.4,6.61,11.5,6.89.25,0,.5.01.75.01,9.34,0,11.36-6.24,11.57-6.97.16-.58.77-.92,1.35-.76.58.16.92.77.76,1.35-.91,3.24-4.8,8.57-13.7,8.57h0Z"/>
          </g>
          <path class="cls-11" d="M68.72,181.15s2.19-2.89,5.28-2.89,6.34,2.55,6.34,2.55c0,0-5.81,3.03-11.62.34Z"/>
          <path class="cls-11" d="M96.08,181.15s-2.19-2.89-5.28-2.89-6.34,2.55-6.34,2.55c0,0,5.92,3.05,11.62.34Z"/>
        </g>
        <g>
          <g>
            <path class="cls-3" d="M458.97,118.95s-2.03,3.32-4.05,7.85c0,0,5.87,7.94,19.96,7.94,16.62,0,23.88-7.71,23.88-7.71l-4.23-7.98c-24.68-2.83-35.57-.1-35.57-.1Z"/>
            <path class="cls-3" d="M475.81,33.34c-32.45,0-53.31,21.22-53.31,46.32,0,29.34,19.84,45.02,55.9,45.02s52.79-18.5,52.79-45.02-23.57-46.32-55.39-46.32Z"/>
            <path class="cls-11" d="M496.67,123.75c-.49,0-.94-.34-1.06-.84-.14-.59.22-1.18.8-1.32,21.41-5.18,33.69-20.46,33.69-41.94,0-25.78-23.34-45.23-54.29-45.23s-52.22,19.02-52.22,45.23c0,22.44,11.35,36.48,33.75,41.72.59.14.95.72.81,1.31-.14.59-.72.96-1.31.81-23.18-5.43-35.43-20.59-35.43-43.85,0-12.81,5.27-24.66,14.84-33.38,9.94-9.05,23.99-14.03,39.56-14.03,32.2,0,56.48,20.38,56.48,47.41,0,22.57-12.89,38.63-35.36,44.06-.09.02-.17.03-.26.03h0Z"/>
          </g>
          <g>
            <g>
              <path class="cls-3" d="M457.63,121.37c-1.41,2.64-8.08,15.48-9.91,26.84-2.04,12.65,7.56,16,11.34,12.65,3.78-3.35,1.75-21.09,3.35-27.49"/>
              <path class="cls-11" d="M455.61,163.18c-1.3,0-2.67-.35-3.94-1.05-4.19-2.31-6.07-7.58-5.02-14.1,1.8-11.21,8.13-23.64,10.02-27.18.29-.53.95-.73,1.48-.45.53.28.73.95.45,1.48-1.32,2.47-8,15.34-9.79,26.49-.9,5.57.57,9.99,3.92,11.84,1.97,1.08,4.28,1.01,5.62-.17,1.96-1.73,2.1-9.45,2.21-15.65.08-4.47.16-8.69.8-11.29.15-.59.74-.94,1.32-.79.58.15.94.74.79,1.32-.59,2.36-.66,6.46-.74,10.8-.14,7.65-.27,14.88-2.94,17.25-1.12.99-2.61,1.5-4.18,1.5h0Z"/>
            </g>
            <g>
              <path class="cls-3" d="M496.16,121.86c1.6,3.01,8.03,15.23,9.82,26.35,2.04,12.65-7.56,16-11.34,12.65-3.78-3.35-1.74-21.09-3.34-27.49"/>
              <path class="cls-11" d="M498.09,163.18c-1.57,0-3.06-.5-4.18-1.5-2.67-2.37-2.8-9.59-2.94-17.24-.08-4.34-.15-8.44-.74-10.8-.15-.59.21-1.18.79-1.32.58-.15,1.18.21,1.32.79.65,2.6.72,6.82.8,11.29.11,6.2.25,13.91,2.2,15.65,1.34,1.19,3.65,1.26,5.62.17,3.35-1.84,4.81-6.27,3.92-11.84-1.15-7.17-4.6-16.4-9.7-26.01-.28-.53-.08-1.19.45-1.48.54-.28,1.2-.08,1.48.45,5.21,9.81,8.74,19.29,9.93,26.69,1.05,6.52-.83,11.79-5.02,14.1-1.27.7-2.64,1.05-3.94,1.05h0Z"/>
            </g>
          </g>
          <path class="cls-3" d="M460.62,119.57s-6.11,17.68-4.1,34.14c1.49,12.22,6.67,27.44,6.67,27.44,0,0,4.78,2.73,11.62-.34,0,0-.17-14.42,2.05-14.42s2.05,14.42,2.05,14.42c6.84,3.08,11.62.34,11.62.34,0,0,5.09-15.24,6.84-28.43.57-4.34.21-10.31-.67-16.04-1.37-8.89-3.73-17.11-3.73-17.11h-32.35Z"/>
          <path class="cls-11" d="M468.34,183.37c-3.42,0-5.56-1.19-5.7-1.27-.23-.13-.41-.35-.49-.6-.05-.16-5.42-16.38-6.88-28.65-1.02-8.51.65-18.68,1.74-23.98.12-.59.69-.97,1.29-.85.59.12.97.7.85,1.29-1.06,5.17-2.69,15.07-1.71,23.28,1.31,10.93,5.79,25.14,6.65,27.78,1.11.49,4.7,1.7,9.63-.29-.02-3.65.14-12.44,1.93-14.25.44-.44.9-.54,1.22-.54s.78.09,1.22.53c1.79,1.81,1.95,10.6,1.93,14.25,4.91,1.97,8.52.76,9.63.28.86-2.65,5.34-16.85,6.65-27.78.95-7.96-.75-17.22-2.33-24.4-.13-.59.24-1.17.83-1.3.59-.13,1.17.24,1.3.83,1.62,7.35,3.35,16.84,2.36,25.13-1.47,12.26-6.83,28.48-6.88,28.65-.09.25-.26.47-.49.6-.22.12-5.35,2.97-12.61-.3-.4-.18-.65-.57-.64-1.01.06-4.97-.31-10.68-.96-12.74-.65,2.06-1.02,7.77-.96,12.73,0,.43-.25.83-.64,1.01-2.62,1.18-4.97,1.56-6.91,1.56h0Z"/>
          <path class="cls-10" d="M497.12,140.24c-.22,0-.44-.09-.6-.28-3.04-3.61-10.57-9.72-19.57-9.72-7.46,0-14.88,3.44-19.85,9.2-.28.33-.77.36-1.1.08-.33-.28-.36-.77-.08-1.1,5.26-6.1,13.13-9.74,21.03-9.74,9.57,0,17.56,6.46,20.77,10.27.28.33.24.82-.09,1.1-.15.12-.32.18-.5.18h0Z"/>
          <g>
            <g>
              <path class="cls-3" d="M460.42,37.73c-2.84-8.18-14.29-18.99-21.25-17.65-6.09,1.17-14.72,20.98-13.6,45.44"/>
              <path class="cls-11" d="M425.57,66.61c-.58,0-1.06-.46-1.09-1.04-1.07-23.38,7.07-45.14,14.49-46.57,7.51-1.44,19.4,9.47,22.49,18.37.2.57-.1,1.19-.67,1.39-.57.2-1.19-.1-1.39-.67-2.73-7.87-13.75-18.15-20.02-16.94-5.14.99-13.83,19.93-12.72,44.32.03.6-.44,1.11-1.04,1.14-.02,0-.03,0-.05,0h0Z"/>
            </g>
            <g>
              <path class="cls-3" d="M493.06,38.37c2.44-8.24,14.31-19.67,21.46-18.29,6.14,1.18,14.64,22.66,13.54,45.84"/>
              <path class="cls-11" d="M528.07,67.01s-.04,0-.05,0c-.6-.03-1.07-.54-1.04-1.14,1.13-23.79-7.77-43.77-12.66-44.71-6.45-1.24-17.9,9.71-20.21,17.53-.17.58-.78.91-1.36.74-.58-.17-.91-.78-.74-1.36,2.65-8.95,15.08-20.53,22.72-19.06,7.21,1.38,15.5,24.4,14.43,46.96-.03.58-.51,1.04-1.09,1.04h0Z"/>
            </g>
          </g>
        </g>
        <g>
          <g>
            <path class="cls-16" d="M55.76,282.22c0,4.77,0,8.04,0,11.45s-.68,10.77-7.77,11.31c-7.09.54-7.83-2.46-7.13-4.79.55-1.83,3.71-2.21,5.77-2.16,2.23.05,4.06-1,4.06-5.32,0-4.77-.18-10.49-.18-10.49"/>
            <path class="cls-11" d="M46.43,306.14c-2.89,0-4.9-.68-5.99-2.03-.89-1.1-1.11-2.6-.62-4.23.83-2.78,5.05-2.98,6.84-2.94.89.02,1.53-.17,1.97-.6.64-.63.97-1.85.97-3.63,0-4.7-.18-10.4-.18-10.46-.02-.6.45-1.11,1.06-1.13.61-.02,1.11.45,1.13,1.06,0,.06.18,5.79.18,10.53,0,2.42-.53,4.12-1.63,5.19-.86.84-2.07,1.24-3.55,1.22-2.47-.06-4.44.52-4.7,1.38-.19.65-.31,1.56.23,2.23.78.97,2.84,1.38,5.78,1.16,5.59-.43,6.76-5.8,6.76-10.22v-11.45c0-.6.49-1.09,1.09-1.09s1.09.49,1.09,1.09v11.45c0,7.56-3.12,11.96-8.78,12.4-.58.04-1.13.07-1.65.07h0Z"/>
          </g>
          <g>
            <path class="cls-16" d="M61.72,282.22c0,4.77,0,8.04,0,11.45s.68,10.77,7.77,11.31c7.09.54,7.83-2.46,7.13-4.79-.55-1.83-3.71-2.21-5.77-2.16-2.23.05-3.87-1-3.87-5.32,0-4.77,0-10.49,0-10.49"/>
            <path class="cls-11" d="M71.06,306.14c-.52,0-1.07-.02-1.65-.07-5.66-.44-8.78-4.84-8.78-12.4v-11.45c0-.6.49-1.09,1.09-1.09s1.09.49,1.09,1.09v11.45c0,4.43,1.17,9.79,6.76,10.22,2.94.22,4.99-.19,5.78-1.16.54-.67.42-1.58.23-2.23-.26-.86-2.25-1.44-4.7-1.38-1.47.02-2.56-.34-3.4-1.15-1.07-1.05-1.59-2.76-1.59-5.25v-10.49s2.18,0,2.18,0v10.49c0,1.84.32,3.09.94,3.69.25.24.7.55,1.82.53,1.78-.04,6.01.16,6.84,2.94.49,1.63.27,3.13-.62,4.23-1.09,1.35-3.1,2.03-5.99,2.03h0Z"/>
          </g>
          <g>
            <path class="cls-16" d="M61.62,278.91s.07,6.6.24,15.14c.12,5.97,1.45,12.73-2.9,12.73s-3.03-7.72-3.03-12.81c0-6.54-.12-13.97-.12-13.97"/>
            <path class="cls-11" d="M58.96,307.87c-1.11,0-2.04-.37-2.74-1.12-1.85-1.94-1.66-5.9-1.48-9.74.05-1.08.1-2.11.1-3.04,0-6.46-.12-13.87-.12-13.95,0-.6.47-1.1,1.07-1.11h.02c.59,0,1.08.48,1.09,1.07,0,.08.12,7.51.12,13.99,0,.99-.05,2.04-.1,3.15-.14,3.06-.33,6.87.88,8.13.18.19.5.44,1.16.44.72,0,1.04-.25,1.22-.44,1.1-1.16.92-4.58.73-7.88-.06-1.09-.12-2.21-.14-3.29-.17-8.45-.24-15.08-.24-15.15,0-.6.48-1.1,1.08-1.1h.01c.6,0,1.09.48,1.09,1.08,0,.07.07,6.69.24,15.12.02,1.06.08,2.15.14,3.22.22,3.94.42,7.65-1.33,9.5-.71.75-1.65,1.12-2.81,1.12h0Z"/>
          </g>
          <g>
            <path class="cls-3" d="M42.43,256.94s-7.34-1.67-11.86,4.07c-2.43,3.09-3.09,7.47-2.09,11.51,1.02,4.1,3.98,7.39,8.94,9.91,7.21,3.65,16.04,3.07,21.33,3.13,5.14.06,15.51.17,22.49-3.28,7.07-3.49,9.12-8.83,8.92-13.62-.17-4.12-1.71-7.77-5.83-10.32-3.97-2.46-9.34-1.38-9.34-1.38,0,0-.06-15.15-16.18-15.15s-16.38,15.13-16.38,15.13Z"/>
            <path class="cls-11" d="M61.3,286.66c-.95,0-1.81,0-2.56-.02-.34,0-.7,0-1.07,0h-2.5c-6.15,0-12.61-.39-18.25-3.24-5.22-2.64-8.41-6.21-9.5-10.62-1.13-4.55-.27-9.2,2.29-12.45,3.23-4.1,7.81-4.71,10.25-4.71.57,0,1.08.03,1.49.07.5-3.78,3.16-14.98,17.36-14.98s16.73,11.21,17.17,15c.5-.05,1.13-.09,1.84-.09,1.92,0,4.71.31,7.08,1.78,4.06,2.51,6.14,6.18,6.35,11.2.15,3.64-.88,10.39-9.52,14.65-4.65,2.29-11.33,3.41-20.43,3.41h0ZM57.67,284.45c.38,0,.75,0,1.1,0,.74,0,1.6.02,2.53.02,3.22,0,13.01,0,19.46-3.19,7.15-3.53,8.47-8.8,8.31-12.6-.18-4.25-1.92-7.33-5.31-9.44-1.94-1.2-4.3-1.45-5.94-1.45-1.51,0-2.61.21-2.62.22-.32.06-.65-.02-.9-.23-.25-.21-.4-.51-.4-.84,0-.57-.28-14.06-15.08-14.06s-15.27,13.49-15.29,14.06c0,.33-.16.64-.42.84-.26.2-.6.28-.91.21,0,0-.91-.2-2.23-.2-2.5,0-6,.67-8.53,3.88-2.15,2.72-2.85,6.67-1.89,10.57.94,3.81,3.68,6.82,8.37,9.2,5.23,2.65,11.38,3.01,17.26,3.01h2.5Z"/>
          </g>
          <g>
            <g>
              <path class="cls-11" d="M54.68,266.8c-.95,0-1.28,1.12-1.21,2.41.06,1.29.53,1.9,1.21,1.9.78,0,1.25-.54,1.25-2.2,0-1.4-.37-2.11-1.25-2.11Z"/>
              <path class="cls-11" d="M54.69,272.21h-.02c-.51,0-2.17-.23-2.3-2.94-.04-.9.06-2.14.79-2.91.4-.42.92-.64,1.51-.64.88,0,2.35.42,2.35,3.21,0,1.03-.16,1.76-.5,2.3-.4.64-1.05.99-1.84.99h0ZM54.69,267.86s-.17.43-.12,1.3c.02.51.12.75.17.85.01-.07.12-.37.12-1.09,0-.85-.16-1.05-.16-1.05h0Z"/>
            </g>
            <g>
              <path class="cls-11" d="M63.27,266.8c-.95,0-1.28,1.12-1.21,2.41.06,1.29.53,1.9,1.21,1.9.78,0,1.25-.54,1.25-2.2,0-1.4-.37-2.11-1.25-2.11Z"/>
              <path class="cls-11" d="M63.28,272.21h-.02c-.51,0-2.17-.23-2.3-2.94-.04-.9.06-2.14.8-2.91.4-.42.92-.64,1.51-.64.88,0,2.35.42,2.35,3.21,0,1.03-.16,1.76-.5,2.3-.4.64-1.05.99-1.84.99h0ZM63.27,267.86s-.17.43-.13,1.3c.02.51.12.75.17.85.01-.07.12-.37.12-1.09,0-.85-.16-1.05-.16-1.05h0Z"/>
            </g>
          </g>
          <g>
            <path class="cls-9" d="M73.7,269.2c-2.78,0-3.95,2.09-3.84,4,.13,2.43,2.12,3.82,4.5,3.82s4.26-1.57,4.11-4.52c-.13-2.55-2.65-3.3-4.77-3.3Z"/>
            <path class="cls-9" d="M43.36,269.2c-2.78,0-3.95,2.09-3.84,4,.13,2.43,2.12,3.82,4.5,3.82s4.26-1.57,4.11-4.52c-.13-2.55-2.65-3.3-4.77-3.3Z"/>
          </g>
        </g>
        <g>
          <g>
            <path class="cls-16" d="M264.31,282.22c0,4.77,0,8.04,0,11.45s-.68,10.77-7.77,11.31c-7.09.54-7.83-2.46-7.13-4.79.55-1.83,3.71-2.21,5.77-2.16,2.23.05,4.06-1,4.06-5.32,0-4.77-.19-10.49-.19-10.49"/>
            <path class="cls-11" d="M254.97,306.14c-2.89,0-4.9-.68-5.99-2.03-.89-1.1-1.11-2.6-.62-4.23.84-2.78,5.06-2.98,6.84-2.94.89.02,1.53-.17,1.97-.6.65-.63.97-1.85.97-3.63,0-4.7-.18-10.4-.19-10.46-.02-.6.45-1.11,1.06-1.13.56-.02,1.11.45,1.13,1.06,0,.06.19,5.8.19,10.53,0,2.42-.53,4.12-1.63,5.19-.87.84-2.07,1.23-3.55,1.22-2.45-.06-4.44.52-4.7,1.38-.19.65-.31,1.56.23,2.23.78.97,2.84,1.38,5.78,1.16,5.59-.43,6.76-5.8,6.76-10.22v-11.45c0-.6.49-1.09,1.09-1.09s1.09.49,1.09,1.09v11.45c0,7.56-3.12,11.96-8.78,12.4-.58.04-1.13.07-1.65.07h0Z"/>
          </g>
          <g>
            <path class="cls-16" d="M264.31,282.22c0,4.77,0,8.04,0,11.45s-.68,10.77-7.77,11.31c-7.09.54-7.83-2.46-7.13-4.79.55-1.83,3.71-2.21,5.77-2.16,2.23.05,4.06-1,4.06-5.32,0-4.77-.19-10.49-.19-10.49"/>
            <path class="cls-11" d="M254.97,306.14c-2.89,0-4.9-.68-5.99-2.03-.89-1.1-1.11-2.6-.62-4.23.84-2.78,5.06-2.98,6.84-2.94.89.02,1.53-.17,1.97-.6.65-.63.97-1.85.97-3.63,0-4.7-.18-10.4-.19-10.46-.02-.6.45-1.11,1.06-1.13.56-.02,1.11.45,1.13,1.06,0,.06.19,5.8.19,10.53,0,2.42-.53,4.12-1.63,5.19-.87.84-2.07,1.23-3.55,1.22-2.45-.06-4.44.52-4.7,1.38-.19.65-.31,1.56.23,2.23.78.97,2.84,1.38,5.78,1.16,5.59-.43,6.76-5.8,6.76-10.22v-11.45c0-.6.49-1.09,1.09-1.09s1.09.49,1.09,1.09v11.45c0,7.56-3.12,11.96-8.78,12.4-.58.04-1.13.07-1.65.07h0Z"/>
          </g>
          <g>
            <path class="cls-16" d="M270.27,282.22c0,4.77,0,8.04,0,11.45s.68,10.77,7.77,11.31c7.09.54,7.83-2.46,7.13-4.79-.55-1.83-3.71-2.21-5.77-2.16-2.23.05-4.06-1-4.06-5.32,0-4.77.18-10.49.18-10.49"/>
            <path class="cls-11" d="M279.6,306.14c-.52,0-1.07-.02-1.65-.07-5.66-.44-8.78-4.84-8.78-12.4v-11.45c0-.6.49-1.09,1.09-1.09s1.09.49,1.09,1.09v11.45c0,4.43,1.17,9.79,6.76,10.22,2.93.22,4.99-.18,5.77-1.16.54-.67.42-1.58.23-2.23-.26-.86-2.25-1.44-4.7-1.38-1.52.02-2.68-.37-3.55-1.22-1.1-1.07-1.63-2.77-1.63-5.19,0-4.73.18-10.47.18-10.53.02-.59.5-1.06,1.09-1.06h.04c.6.02,1.08.52,1.06,1.13,0,.06-.18,5.76-.18,10.46,0,1.78.33,3,.97,3.63.44.43,1.05.61,1.97.6,1.77-.05,6.01.15,6.84,2.94.49,1.63.27,3.13-.62,4.23-1.09,1.35-3.1,2.03-5.99,2.03h0Z"/>
          </g>
          <g>
            <path class="cls-16" d="M270.16,278.91s.18,6.72.18,15.26c0,6,1.2,12.6-3.34,12.6-4.11,0-2.66-9.15-2.66-14.24v-12.54"/>
            <path class="cls-11" d="M267.01,307.87c-.93,0-1.76-.35-2.38-1-1.92-2.02-1.7-6.58-1.48-11,.06-1.21.12-2.35.12-3.33v-12.54c0-.6.49-1.09,1.09-1.09s1.09.49,1.09,1.09v12.54c0,1.03-.06,2.2-.12,3.43-.17,3.4-.39,8.05.88,9.39.21.22.46.33.8.33.83,0,1.2-.29,1.41-.5,1.15-1.19,1.03-4.54.92-7.78-.04-1.07-.08-2.16-.08-3.23,0-8.42-.18-15.16-.18-15.23-.02-.6.46-1.1,1.06-1.12.56.01,1.1.46,1.12,1.06,0,.07.18,6.83.18,15.29,0,1.04.04,2.11.07,3.15.13,3.87.26,7.52-1.53,9.38-.75.77-1.75,1.17-2.98,1.17h0Z"/>
          </g>
          <g>
            <path class="cls-3" d="M250.72,256.94s-7.34-1.67-11.86,4.07c-2.43,3.09-3.09,7.47-2.09,11.51,1.02,4.1,3.98,7.39,8.94,9.91,7.21,3.65,16.03,3.07,21.33,3.13,5.14.06,15.51.17,22.49-3.28,7.07-3.49,9.12-8.83,8.91-13.62-.17-4.12-1.71-7.77-5.83-10.32-3.97-2.46-9.34-1.38-9.34-1.38,0,0-.06-15.15-16.18-15.15s-16.38,15.13-16.38,15.13Z"/>
            <path class="cls-11" d="M269.58,286.66c-.95,0-1.81,0-2.56-.02-.34,0-.7,0-1.07,0h-2.5c-6.15,0-12.61-.39-18.24-3.24-5.22-2.64-8.41-6.21-9.5-10.62-1.13-4.55-.27-9.2,2.29-12.45,3.23-4.1,7.81-4.71,10.25-4.71.57,0,1.08.03,1.49.07.5-3.78,3.16-14.98,17.36-14.98s16.73,11.21,17.17,15c.5-.05,1.12-.09,1.83-.09,1.92,0,4.71.31,7.08,1.78,4.06,2.51,6.14,6.18,6.35,11.2.15,3.64-.88,10.39-9.52,14.65-4.65,2.29-11.33,3.41-20.43,3.41h0ZM265.95,284.45c.38,0,.75,0,1.1,0,.74,0,1.6.02,2.53.02,3.22,0,13.01,0,19.46-3.19,7.15-3.53,8.47-8.8,8.31-12.6-.18-4.25-1.91-7.33-5.32-9.44-1.94-1.2-4.3-1.45-5.93-1.45-1.51,0-2.61.21-2.62.22-.31.06-.65-.02-.9-.23-.25-.21-.4-.51-.4-.84,0-.57-.28-14.06-15.08-14.06s-15.27,13.49-15.28,14.06c0,.33-.16.64-.42.84-.26.2-.6.28-.91.21,0,0-.91-.2-2.23-.2-2.5,0-6,.67-8.53,3.88-2.15,2.72-2.85,6.68-1.89,10.57.94,3.81,3.68,6.82,8.37,9.2,5.23,2.65,11.38,3.01,17.26,3.01h2.5Z"/>
          </g>
        </g>
        <g>
          <g>
            <path class="cls-16" d="M128.41,282.22v11.45c0,3.41-.41,11.11-7.52,11.31-4.32.12-5.59-2.46-4.89-4.79.55-1.83,2.47-2.21,4.53-2.16,2.23.05,2.82-1,2.82-5.32,0-4.77-.18-10.49-.18-10.49"/>
            <path class="cls-11" d="M120.59,306.08c-2.83,0-4.27-1.08-4.99-2.01-.88-1.14-1.12-2.67-.66-4.19.91-3.05,4.44-2.96,5.6-2.94.76.02.99-.12,1.1-.23.53-.52.59-2.53.59-3.99,0-4.7-.18-10.4-.18-10.46-.02-.6.45-1.11,1.06-1.13.6-.02,1.11.45,1.13,1.06,0,.06.18,5.8.18,10.53,0,2.75-.2,4.54-1.25,5.56-.82.8-1.91.86-2.68.85-2.68-.07-3.25.7-3.45,1.38-.15.49-.31,1.44.3,2.23.61.79,1.86,1.21,3.52,1.15,4.35-.12,6.46-3.47,6.46-10.22v-11.45c0-.6.49-1.09,1.09-1.09s1.09.49,1.09,1.09v11.45c0,10.05-4.67,12.29-8.58,12.4-.11,0-.22,0-.33,0h0Z"/>
          </g>
          <g>
            <path class="cls-16" d="M132.4,278.6s.18,6.72.18,15.26c0,6,1.64,12.6-2.9,12.6-4.11,0-3.09-9.15-3.09-14.24v-12.54"/>
            <path class="cls-11" d="M129.68,307.56c-.94,0-1.78-.35-2.43-1.02-2.08-2.14-1.94-7.22-1.81-11.71.03-.93.05-1.82.05-2.6v-12.54c0-.6.49-1.09,1.09-1.09s1.09.49,1.09,1.09v12.54c0,.8-.02,1.71-.05,2.67-.1,3.65-.24,8.65,1.19,10.12.24.25.51.36.86.36.79,0,1.13-.26,1.31-.45,1-1.06.82-4.12.65-7.08-.08-1.3-.15-2.64-.15-3.98,0-8.43-.18-15.17-.18-15.23-.02-.6.46-1.1,1.06-1.12h.03c.59,0,1.07.47,1.09,1.06,0,.07.18,6.83.18,15.29,0,1.27.08,2.58.15,3.85.22,3.74.4,6.96-1.24,8.71-.71.76-1.69,1.14-2.9,1.14h0Z"/>
          </g>
          <g>
            <path class="cls-16" d="M130.78,281.91c0,4.77,0,9.22.12,13.19.1,3.41.02,8.92,6.21,9.88,1.68.26,3.35.24,4.5.03,3.66-.69,3.93-3.23,3.44-4.76-.58-1.82-2.84-2.27-4.9-2.22-2.23.05-4.03-1-4.06-5.32-.04-5.64-.13-10.74-.13-10.74"/>
            <path class="cls-11" d="M139.6,306.27c-.86,0-1.77-.07-2.65-.2-6.86-1.06-7.03-7.23-7.13-10.54v-.38c-.13-3.99-.13-8.47-.13-13.22,0-.6.49-1.09,1.09-1.09s1.09.49,1.09,1.09c0,4.73,0,9.2.12,13.15v.39c.13,4.19.6,7.72,5.29,8.45,1.46.23,3.04.24,4.13.03,1.21-.23,2.03-.69,2.44-1.37.48-.81.25-1.72.16-1.98-.44-1.39-2.83-1.49-3.83-1.46-1.5.01-2.66-.37-3.52-1.2-1.1-1.06-1.64-2.76-1.66-5.2-.04-5.64-.13-10.73-.13-10.73-.01-.6.47-1.1,1.07-1.11.63.01,1.1.47,1.11,1.07,0,0,.09,5.1.13,10.75.01,1.79.35,3.02.99,3.65.43.42,1.05.6,1.95.58,3.19-.09,5.33.98,5.97,2.98.42,1.3.28,2.68-.37,3.77-.51.85-1.6,1.96-3.91,2.4-.65.12-1.41.18-2.22.18h0Z"/>
          </g>
          <g>
            <path class="cls-3" d="M112.99,256.75s-5.32.15-8.68,5.19c-3.94,5.91-3.53,16,4.6,20.17,3.6,1.85,6.5,2.36,10.21,2.84,12.08,1.55,24.33.57,29.25-1.11,8.26-2.81,9.68-7.95,10.03-11.51.44-4.52-1.08-10.01-4.95-12.87-4.37-3.23-8.22-2.75-8.22-2.75,0,0-.12-14.9-16.24-14.9s-16,14.94-16,14.94Z"/>
            <path class="cls-11" d="M131.57,286.81h0c-4.3,0-8.53-.26-12.59-.79-3.64-.47-6.73-.98-10.57-2.95-3.63-1.86-6.09-4.93-7.12-8.87-1.12-4.31-.32-9.24,2.11-12.88,2.78-4.17,6.77-5.28,8.59-5.57.45-3.44,3.01-15.05,17-15.05s16.82,11.27,17.24,14.89c1.51.07,4.58.55,7.86,2.98,4.34,3.21,5.83,9.27,5.39,13.86-.22,2.24-.88,9.07-10.77,12.44-3.52,1.2-10.09,1.95-17.15,1.95h0ZM128.99,242.9c-14.21,0-14.89,13.33-14.91,13.89-.02.57-.49,1.04-1.06,1.05-.19,0-4.81.22-7.8,4.71-2.09,3.13-2.78,7.39-1.81,11.12.6,2.32,2.13,5.49,6,7.47,3.52,1.8,6.42,2.28,9.85,2.72,3.97.51,8.11.77,12.31.77,6.74,0,13.19-.72,16.45-1.83,7.66-2.61,8.98-7.29,9.3-10.58.38-3.97-.86-9.19-4.51-11.89-3.87-2.86-7.29-2.56-7.45-2.54-.3.03-.62-.06-.85-.27-.23-.21-.37-.5-.37-.81,0-.56-.33-13.82-15.14-13.82h0Z"/>
          </g>
          <path class="cls-11" d="M112.92,259.89c-.57,0-1.05-.45-1.09-1.03-.07-1.22.07-2.22.07-2.27.08-.6.64-1.01,1.23-.93.6.08,1.01.63.93,1.23,0,0-.11.84-.05,1.83.04.6-.42,1.12-1.02,1.16-.02,0-.04,0-.07,0h0Z"/>
          <path class="cls-11" d="M143.65,257.99c-.52,0-.98-.37-1.08-.91-.1-.59.29-1.16.89-1.26.38-.07,1.15-.17,1.68-.21.58-.04,1.12.4,1.17,1,.05.6-.4,1.13-1,1.17-.49.04-1.19.13-1.48.18-.06.01-.13.02-.19.02h0Z"/>
          <g>
            <g>
              <path class="cls-11" d="M117.3,266.8c-.95,0-1.28,1.12-1.21,2.41.06,1.29.52,1.9,1.21,1.9.78,0,1.25-.54,1.25-2.2,0-1.4-.37-2.11-1.25-2.11Z"/>
              <path class="cls-11" d="M117.31,272.21h-.02c-.51,0-2.17-.23-2.3-2.94-.04-.9.06-2.14.8-2.92.4-.42.92-.64,1.51-.64.88,0,2.35.42,2.35,3.21,0,1.03-.16,1.76-.5,2.3-.4.64-1.05.99-1.84.99h0ZM117.31,267.86s-.17.43-.13,1.3c.03.51.12.75.17.85.01-.07.12-.37.12-1.09,0-.85-.16-1.05-.16-1.05h0Z"/>
            </g>
            <g>
              <path class="cls-11" d="M125.89,266.8c-.95,0-1.28,1.12-1.21,2.41.06,1.29.53,1.9,1.21,1.9.78,0,1.26-.54,1.26-2.2,0-1.4-.37-2.11-1.26-2.11Z"/>
              <path class="cls-11" d="M125.9,272.21h-.02c-.51,0-2.17-.23-2.3-2.94-.04-.9.06-2.14.8-2.91.4-.42.92-.64,1.51-.64.88,0,2.35.42,2.35,3.21,0,1.03-.16,1.76-.5,2.3-.4.64-1.05.99-1.84.99h0ZM125.89,267.86s-.17.43-.13,1.3c.02.51.12.75.17.85.01-.07.12-.37.12-1.09,0-.85-.16-1.05-.16-1.05h0Z"/>
            </g>
          </g>
          <path class="cls-9" d="M137.13,269.2c-2.78,0-3.95,2.09-3.84,4,.13,2.43,2.12,3.82,4.5,3.82s4.26-1.57,4.11-4.52c-.13-2.55-2.65-3.3-4.77-3.3Z"/>
          <path class="cls-9" d="M108.56,269.2c-2.43,0-3.45,2.09-3.36,4,.12,2.43,1.85,3.82,3.94,3.82s3.72-1.57,3.59-4.52c-.12-2.55-2.31-3.3-4.17-3.3Z"/>
        </g>
        <g>
          <g>
            <path class="cls-16" d="M191.98,284.59c-.21,3.16.54,11.17-.37,12.48-1.28,1.86-4.16.62-5.05,3.35-.65,1.98.25,3.94,2.45,4.66,2.23.73,4.36-.25,5.88-.91,3.16-1.37,3.36-5.56,3.38-8,.01-1.62.04-7.33-.3-10.59"/>
            <path class="cls-11" d="M190.66,306.43c-.64,0-1.31-.09-1.98-.31-2.68-.88-4.01-3.42-3.15-6.03.69-2.1,2.32-2.51,3.51-2.81.84-.21,1.36-.36,1.68-.82.37-.71.26-4.68.2-7.05-.05-1.9-.1-3.69-.02-4.88.04-.6.54-1.04,1.16-1.02.6.04,1.06.56,1.02,1.16-.07,1.09-.03,2.83.02,4.68.13,4.91.12,7.33-.58,8.35-.8,1.16-1.99,1.45-2.94,1.69-1.12.28-1.67.46-1.97,1.37-.48,1.48.21,2.77,1.75,3.28,1.78.58,3.56-.2,4.99-.83l.11-.05c2.37-1.03,2.71-4.29,2.73-7.01.02-2.14.03-7.44-.29-10.47-.06-.6.37-1.14.97-1.2.61-.06,1.14.37,1.2.97.33,3.14.32,8.54.31,10.72-.02,1.99-.07,7.26-4.04,8.99l-.11.05c-1.17.51-2.77,1.21-4.56,1.21h0Z"/>
          </g>
          <g>
            <g>
              <path class="cls-16" d="M201.27,278.91c.56,13.24.28,13.24.62,17.99.4,5.73,1.29,8-3.03,8.01-3.66.01-3.21-4.89-3.25-7.75-.13-8.62-.08-17.16-.08-17.16"/>
              <path class="cls-11" d="M198.84,306c-1.12,0-2.04-.36-2.75-1.07-1.59-1.59-1.59-4.48-1.58-6.8,0-.34,0-.66,0-.96-.13-8.53-.09-17.1-.09-17.18,0-.6.49-1.09,1.09-1.09h0c.6,0,1.09.5,1.09,1.1,0,.09-.05,8.63.08,17.14,0,.31,0,.65,0,1,0,1.82-.01,4.3.94,5.25.18.18.51.43,1.21.43h0c1.05,0,1.71-.15,1.98-.44.47-.52.33-2.16.14-4.23-.06-.66-.12-1.38-.18-2.17-.16-2.27-.18-3.48-.22-5.49-.04-2.21-.1-5.54-.4-12.53-.03-.6.44-1.11,1.04-1.14.58-.05,1.11.44,1.14,1.04.29,7.01.36,10.36.4,12.58.04,1.98.06,3.17.21,5.38.05.77.12,1.48.18,2.13.25,2.81.42,4.67-.7,5.89-.72.79-1.83,1.15-3.58,1.16h-.02Z"/>
            </g>
            <g>
              <path class="cls-3" d="M181.07,256.75s-5.12.77-8.25,5.5c-1.87,2.84-2.32,6.25-1.81,9.98.63,4.53,3.97,8.18,8.67,10.44,5.92,2.85,17.44,4.08,30.41,1.66,9.95-1.85,13.14-8.03,13.57-12.22.53-5.23-.8-9.03-3.89-11.73-3.5-3.06-7.6-3.43-7.6-3.43,0,0,0-15.15-15.18-15.15-16.62,0-15.92,14.94-15.92,14.94Z"/>
              <path class="cls-11" d="M196.54,286.71h0c-6.97,0-13.29-1.11-17.33-3.06-5.33-2.56-8.63-6.57-9.28-11.27-.58-4.24.08-7.85,1.98-10.73,2.57-3.89,6.34-5.31,8.07-5.78.09-1.99.68-6.76,4.21-10.46,2.97-3.12,7.28-4.7,12.8-4.7,13.79,0,15.89,11.84,16.21,15.3,1.5.3,4.55,1.16,7.29,3.55,3.43,3,4.82,7.14,4.26,12.66-.52,5.17-4.59,11.35-14.45,13.18-4.65.86-9.27,1.3-13.75,1.3h0ZM196.99,242.9c-4.9,0-8.67,1.35-11.21,4.02-3.84,4.03-3.62,9.72-3.62,9.78.03.56-.38,1.05-.93,1.13-.04,0-4.69.77-7.49,5.02-1.6,2.42-2.15,5.53-1.64,9.23.55,3.96,3.42,7.37,8.06,9.61,3.75,1.81,9.72,2.84,16.38,2.84h0c4.35,0,8.84-.42,13.35-1.26,10.91-2.03,12.46-9.13,12.68-11.25.48-4.77-.67-8.3-3.52-10.79-3.2-2.79-6.94-3.17-6.98-3.17-.56-.05-.99-.52-.99-1.09,0-.57-.21-14.06-14.08-14.06h0Z"/>
            </g>
            <path class="cls-9" d="M187.77,269.2c-2.34,0-3.32,2.08-3.24,4,.11,2.44,1.79,3.83,3.8,3.83s3.59-1.57,3.46-4.52c-.11-2.55-2.23-3.3-4.02-3.3Z"/>
            <path class="cls-11" d="M181.07,257.84c-.54,0-1.01-.41-1.08-.96-.07-.6.35-1.14.95-1.22,1.43-.17,1.94-.17,2.44-.16h.29c.6,0,1.09.49,1.09,1.09s-.49,1.09-1.09,1.09h-.33c-.44-.01-.86-.02-2.13.14-.05,0-.09,0-.13,0h0Z"/>
            <path class="cls-11" d="M212.17,258.05c-.06,0-.12,0-.18-.01-.51-.09-1.74-.17-2.42-.17-.6,0-1.1-.47-1.11-1.08,0-.6.47-1.1,1.08-1.11.79-.02,2.11.09,2.81.2.6.1,1,.66.9,1.26-.09.53-.55.91-1.08.91h0Z"/>
            <g>
              <path class="cls-11" d="M179.35,266.91c-.8,0-1.07,1.1-1.01,2.4.06,1.29.46,1.9,1.04,1.91.66.01,1.06-.52,1.04-2.19-.01-1.4-.33-2.11-1.07-2.12Z"/>
              <path class="cls-11" d="M179.4,272.31h-.04c-.59,0-1.98-.31-2.11-2.95-.07-1.37.19-2.37.76-2.97.35-.37.83-.57,1.33-.57.99,0,2.15.57,2.17,3.2.01,1.36-.22,2.2-.76,2.74-.36.36-.82.55-1.35.55h0ZM179.4,270.12v1.09s0-1.09,0-1.09h0Z"/>
            </g>
          </g>
          <g>
            <path class="cls-16" d="M199.01,298.39c3.28-1.31,6.03,1.2,5.77,4.42-.15,1.9-1.15,2.92-3.13,3.39-.58.14-5.1.47-5.83-4.02-.29-1.78-.35-5.98-.29-9.33"/>
            <path class="cls-11" d="M200.85,307.36c-.99,0-2.43-.2-3.69-1.04-1.29-.86-2.12-2.23-2.4-3.96-.31-1.92-.36-6.33-.3-9.53,0-.6.5-1.13,1.11-1.07.6.01,1.08.51,1.07,1.11-.06,3.35,0,7.48.27,9.14.18,1.13.65,1.94,1.42,2.47,1.21.83,2.81.72,3.08.66,1.55-.37,2.18-1.03,2.29-2.42.1-1.25-.37-2.39-1.27-3.05-.83-.61-1.9-.71-3.01-.26-.56.22-1.19-.05-1.42-.61-.22-.56.05-1.2.61-1.42,1.81-.72,3.68-.53,5.12.54,1.5,1.11,2.31,2.97,2.15,4.98-.19,2.34-1.48,3.77-3.96,4.37-.18.04-.56.09-1.07.09h0Z"/>
          </g>
        </g>
        <g>
          <path class="cls-3" d="M211.35,41.24c-2.95-10.59-12.18-21.44-17.81-21.41-6.42.04-22.77,27.38-20.86,46.07"/>
          <path class="cls-11" d="M172.67,67c-.55,0-1.03-.42-1.08-.98-1.52-14.89,8.25-34.94,15.59-43.11,2.47-2.75,4.61-4.15,6.36-4.16.01,0,.02,0,.04,0,6.27,0,15.76,11.19,18.83,22.2.16.58-.18,1.18-.76,1.35-.58.16-1.18-.18-1.34-.76-2.97-10.65-11.97-20.64-16.75-20.61-.39,0-1.89.26-4.75,3.44-7.07,7.88-16.49,27.16-15.04,41.43.06.6-.38,1.14-.98,1.2-.04,0-.07,0-.11,0h0Z"/>
        </g>
        <path class="cls-10" d="M209.57,36.41c-.88-1.8-1.5-3.46-3-5.58-11.85.82-21.31,4.48-29.56,11.65-1.38,3.73-3.27,8.08-4.3,16.7l37.63-20.39s0-.09,0-.13c-.17-.68-.45-1.63-.76-2.26Z"/>
        <g>
          <path class="cls-3" d="M236.31,41.95c3.62-7.31,18.12-19.1,24.73-17.56,6.93,1.61,13.48,30.81,8.05,48.8"/>
          <path class="cls-11" d="M269.09,74.28c-.1,0-.21-.02-.32-.05-.58-.17-.9-.78-.73-1.36,4.15-13.76,1.25-35.01-4.01-44.1-1.11-1.91-2.26-3.09-3.25-3.32-5.72-1.32-19.89,9.7-23.5,16.99-.27.54-.92.76-1.46.49-.54-.27-.76-.92-.49-1.46,3.76-7.58,18.58-19.86,25.95-18.14,1.63.38,3.19,1.84,4.64,4.36,5.48,9.47,8.51,31.55,4.21,45.82-.14.47-.58.78-1.05.78h0Z"/>
        </g>
        <path class="cls-10" d="M241.62,34.89c11.92,3,24.4,14.33,29.27,27.11-.18,4.87-1.29,9.4-1.81,11.18l-32.78-31.24c.52-1.66,2.79-4.35,5.31-7.06Z"/>
        <g>
          <path class="cls-3" d="M205.1,119.53l-5.92,1.59s-7.58,13.24-7.82,27.91c-.22,12.81,9.18,15.13,12.59,11.41,3.42-3.72-.45-21.15.48-27.68"/>
          <path class="cls-11" d="M200.01,163.14c-.96,0-1.96-.19-2.92-.57-4.39-1.75-6.94-6.82-6.83-13.55.25-14.79,7.65-27.89,7.96-28.44.14-.25.38-.44.66-.51l5.92-1.59c.58-.16,1.18.19,1.34.77.16.58-.19,1.18-.77,1.34l-5.47,1.47c-1.22,2.28-7.25,14.17-7.46,27-.1,5.79,1.94,10.08,5.45,11.48,1.96.78,4.07.45,5.24-.83,1.77-1.92,1.11-9.61.57-15.79-.38-4.45-.75-8.66-.37-11.31.08-.6.63-1.01,1.23-.93.6.08,1.01.64.93,1.23-.34,2.41,0,6.49.38,10.81.66,7.62,1.28,14.82-1.14,17.46-1.17,1.27-2.9,1.95-4.74,1.95h0Z"/>
        </g>
        <path class="cls-3" d="M235.5,119.8s-1.27,3.93-.24,13.16c.34,3.04-.14,11.08.26,13.37.3,1.67,1.45,5.1,1.19,9.3-.35,5.75-2.46,10.01-2.46,10.01-1.68,8.26-3.22,15.51-3.22,15.51,0,0-2.63,1.59-6.27,1.4-3.19-.17-5.35-1.12-5.35-1.12-.72-2.01-1.19-3.45-1.58-4.61-.96-2.89-.97-3.01-1.79-5.63-.28.02-1.05,9.62-1.05,9.62-6.84,3.08-11.62.34-11.62.34,0,0-4.92-13.87-6.45-25.96-1.72-13.53,4.16-35.39,4.16-35.39"/>
        <path class="cls-11" d="M208.55,183.37c-3.42,0-5.56-1.19-5.7-1.27-.23-.13-.4-.34-.49-.58-.05-.14-5.11-14.52-6.58-26.79-1.04-8.68,1.09-20.53,2.05-25.22.12-.59.69-.97,1.29-.85.59.12.97.7.85,1.29-.94,4.59-3.02,16.16-2.02,24.52,1.3,10.87,5.49,23.47,6.33,25.91,1.1.49,4.73,1.72,9.7-.31.65-7.63.74-8.04.94-8.91l.03-.13c.13-.59.72-.96,1.3-.83.59.13.96.71.83,1.3l-.03.13c-.17.77-.26,1.16-.95,9.27-.03.39-.28.74-.64.9-2.63,1.18-4.97,1.56-6.91,1.56h0Z"/>
        <path class="cls-11" d="M225.23,183.64c-1.77,0-3.86-.31-6.18-1.19-.29-.11-.52-.34-.63-.64-.05-.14-1.34-3.6-4.06-12.47-.26-.86-1.47-1.47-2.12-1.8-.15-.08-.29-.15-.38-.2-.52-.3-.71-.97-.41-1.49.3-.52.97-.71,1.49-.41.07.04.17.09.29.15.87.44,2.69,1.36,3.23,3.11,2.14,7,3.41,10.66,3.84,11.88,5.09,1.78,8.67.41,9.8-.15.42-1.97,2.04-9.53,3.11-15,.02-.1.06-.21.11-.3.02-.04,2.3-4.41,2.33-10.26.01-2.83-.33-4.45-.73-6.32-.26-1.2-.52-2.45-.72-4.11-.15-1.27-.3-2.45-.46-3.62-.41-3.16-.84-6.42-1.15-11.55-.04-.6.42-1.12,1.02-1.16.6-.04,1.12.42,1.16,1.02.3,5.05.71,8.13,1.14,11.4.15,1.18.31,2.36.46,3.65.18,1.56.44,2.76.68,3.91.41,1.92.8,3.73.78,6.79-.03,5.85-2.07,10.24-2.51,11.12-1.23,6.32-3.17,15.29-3.19,15.38-.06.28-.23.53-.48.69-.14.09-2.52,1.57-6.41,1.57h0Z"/>
        <path class="cls-10" d="M234.45,140.49c-3.79,0-6.7-2.07-9.75-4.24-3.84-2.73-8.18-5.81-15.36-5.7-3.99.07-8.97,1.97-10.99,7.09-.16.4-.61.6-1.01.44-.4-.16-.6-.61-.44-1.01,2.31-5.83,7.93-7.99,12.41-8.07,7.66-.13,12.26,3.11,16.29,5.98,3.67,2.62,6.58,4.68,10.94,3.72.43-.09.84.17.93.59.09.42-.17.84-.59.93-.85.19-1.66.27-2.43.27h0Z"/>
        <rect class="cls-5" x="206.76" y="141.91" width="1.59" height="4.54"/>
        <polygon class="cls-5" points="215.52 141.38 215.52 146.45 213.91 146.45 213.91 141.38 212.66 141.38 212.66 139.67 216.77 139.67 216.77 141.38 215.52 141.38"/>
        <rect class="cls-4" x="217.33" y="141.91" width="1.6" height="4.54"/>
        <path class="cls-5" d="M208.56,140.5c0,.61-.46,1.11-1.01,1.11s-1.01-.5-1.01-1.11.45-1.11,1.01-1.11,1.01.5,1.01,1.11"/>
        <path class="cls-14" d="M206.83,147.68c3.19-1.4,6.19-3.26,6.19-4.65,0-.7-.42-1.12-1.49-1.26-.69-.09-1.49-.01-1.34-.7.14-.67,1.69-1.29,2.48-1.4v-1.38c-2.09.79-3.97,1.81-3.97,3.29,0,.71.39,1.46,1.49,1.57,1.06.1,1.28.42,1.28.86,0,.87-1.98,2.27-4.63,3.67"/>
        <path class="cls-5" d="M219.13,140.5c0,.61-.45,1.11-1.01,1.11s-1.01-.5-1.01-1.11.45-1.11,1.01-1.11,1.01.5,1.01,1.11"/>
        <path class="cls-5" d="M198.7,148.84c-.64-1.29,2.3-4.17,2.3-4.17-2.79,2.23-3.85,3.98-3.4,4.82.53.98,3.67.84,8.43-1.45-3.83,1.63-6.86,1.74-7.33.8"/>
        <path class="cls-5" d="M220.47,136.54c-.85-1.52-5.47-.54-11.73,3.01,5.29-2.64,9.99-3.74,10.89-2.37.29.45.19,1.34-.51,2.45.6-.64,1.78-2.32,1.35-3.09"/>
        <polygon class="cls-5" points="201.44 146.45 201.44 139.67 203.04 139.67 203.04 142.68 204.38 139.67 206.23 139.67 204.73 142.76 206.26 146.45 204.48 146.45 203.04 142.84 203.04 146.45 201.44 146.45"/>
        <path class="cls-3" d="M215.09,33.34c-31.27-.25-53.53,20.4-53.31,47.05.24,29.34,19.34,43.74,56.36,43.74,34.49,0,52.35-17.22,52.35-43.74s-22.03-46.79-55.39-47.05Z"/>
        <path class="cls-11" d="M232.73,124.28c-.51,0-.96-.36-1.07-.87-.12-.59.26-1.17.85-1.29,24.46-4.98,36.87-19.27,36.87-42.46,0-25.78-23.34-45.23-54.3-45.23s-52.22,19.02-52.22,45.23c0,23.16,13.06,38.04,36.79,41.89.6.1,1,.66.9,1.25-.1.59-.66,1-1.25.9-24.9-4.05-38.62-19.69-38.62-44.05,0-12.81,5.27-24.66,14.85-33.38,9.94-9.05,23.99-14.03,39.56-14.03,32.2,0,56.48,20.38,56.48,47.41,0,24.37-12.99,39.38-38.61,44.6-.07.02-.15.02-.22.02h0Z"/>
        <path class="cls-6" d="M241.91,105.84c11.85-6.48,15.38-38.59,1.15-49.03-9.82-7.21-58.8-7.98-67.46,0-13.05,12.02-10.79,41.92,1.09,48.29,14.97,8.02,50.76,8.65,65.22.75Z"/>
        <path class="cls-2" d="M226.28,52.18c-19.12-2.6-44.6-.89-50.58,4.31-11.23,9.77-12.06,34.89-2.76,45.65-1.47-11.48,1.24-22.22,8.76-31.63,15.79-19.75,44.58-18.34,44.58-18.34Z"/>
        <path class="cls-1" d="M178.48,72.74c-4.51,0-6.4,2.58-6.23,4.95.21,3.01,3.44,4.73,7.31,4.73s6.91-1.94,6.66-5.59c-.21-3.15-4.3-4.09-7.74-4.09Z"/>
        <path class="cls-1" d="M231.53,73.59c-4.51,0-6.4,2.58-6.23,4.95.21,3.01,3.44,4.72,7.31,4.72s6.91-1.94,6.66-5.59c-.21-3.15-4.3-4.08-7.74-4.08Z"/>
        <g>
          <path class="cls-11" d="M196.75,65.59c-2.1,0-2.68,2.44-2.68,6.11s1.34,4.68,2.87,4.68,1.91-2.44,1.91-5.09-.57-5.7-2.11-5.7Z"/>
          <path class="cls-11" d="M196.94,77.47c-1.48,0-3.96-.75-3.96-5.77,0-2.15,0-7.2,3.77-7.2,2,0,3.2,2.54,3.2,6.79,0,1.53,0,6.18-3.01,6.18h0ZM196.75,66.68c-.39,0-1.58,0-1.58,5.01,0,3.59,1.29,3.59,1.78,3.59.17,0,.82-.68.82-4,0-3.03-.72-4.5-1.01-4.61h0Z"/>
        </g>
        <g>
          <path class="cls-11" d="M210.58,65.79c-2.11,0-2.68,2.44-2.68,6.11s1.34,4.68,2.87,4.68,1.91-2.44,1.91-5.09-.57-5.7-2.11-5.7Z"/>
          <path class="cls-11" d="M210.77,77.68c-1.48,0-3.96-.75-3.96-5.77,0-2.15,0-7.2,3.77-7.2,2,0,3.2,2.54,3.2,6.79,0,1.53,0,6.18-3.01,6.18h0ZM210.58,66.88c-.39,0-1.59,0-1.59,5.02,0,3.59,1.29,3.59,1.78,3.59.17,0,.82-.68.82-4,0-3.03-.72-4.5-1.01-4.61h0Z"/>
        </g>
        <path class="cls-11" d="M203.4,181.15s.95-2.89,4.04-2.89,7.59,2.55,7.59,2.55c0,0-5.81,3.03-11.62.34Z"/>
        <path class="cls-11" d="M231.05,181.16s-4.83-2.96-7.92-2.8c-3.09.16-3.71,3.05-3.71,3.05,0,0,6.3,2.8,11.62-.25Z"/>
        <g>
          <path class="cls-3" d="M227.45,130.47c1.21,11.43-2.13,23.74,3.78,29.67,3.56,3.58,11.51,2.44,10.97-8.28-.23-4.48-1.38-9.76-3.61-17.48-2.16-7.45-3.88-11.18-3.88-11.18"/>
          <path class="cls-11" d="M235.62,163.06c-1.89,0-3.78-.75-5.17-2.15-4.27-4.29-4.09-11.45-3.89-19.03.1-3.72.19-7.56-.2-11.29-.06-.6.37-1.14.97-1.2.61-.06,1.14.37,1.2.97.41,3.88.31,7.79.21,11.58-.19,7.41-.36,13.81,3.25,17.43,1.45,1.46,3.75,1.91,5.57,1.1,2.46-1.09,3.75-4.21,3.53-8.56-.22-4.24-1.25-9.23-3.57-17.23-2.11-7.27-3.81-10.99-3.82-11.03-.25-.55-.01-1.2.54-1.45.55-.25,1.19-.01,1.45.54.07.16,1.77,3.89,3.94,11.33,2.37,8.17,3.43,13.31,3.66,17.73.38,7.53-3.25,9.97-4.83,10.67-.9.4-1.87.59-2.83.59h0Z"/>
        </g>
        <path class="cls-11" d="M204.65,91.83c-.26,0-.52,0-.79-.01-9.78-.34-12.69-5.97-13.49-8.38-.19-.57.12-1.19.69-1.38.57-.19,1.19.12,1.38.69.82,2.45,3.39,6.61,11.49,6.89,10.02.34,12.1-6.21,12.31-6.96.16-.58.77-.92,1.35-.76.58.16.92.77.76,1.35-.91,3.24-4.8,8.57-13.7,8.57h0Z"/>
        <g>
          <g>
            <path class="cls-3" d="M334.53,119.99s-1.66,5.16-3.38,13.62c-1.12,5.49-2.71,15.29-.08,22.45,1.69,4.61,5.35,8.04,7.43,9.18l5.21,15.91s5.52,2.52,11.62-.03c0,0,2.23-9.35,3.92-16.6,0,0,4.7-3.5,5.61-10.05.74-5.32-.91-7.82-1.52-10.29-.42-1.7-2.66-9.87-2.01-22.14l-26.8-2.05Z"/>
            <path class="cls-10" d="M347.72,143.14s-.05,0-.08,0c-4.97-.05-6.68-3.41-8.18-6.38-1.47-2.89-2.85-5.62-6.98-5.91-.43-.03-.75-.4-.72-.83.03-.43.39-.76.83-.72,5.01.36,6.73,3.76,8.26,6.76,1.5,2.95,2.79,5.49,6.81,5.53h.05c3.1,0,4.25-2.54,5.58-5.47,1.47-3.24,3.13-6.91,7.87-7.13.39-.02.79.31.82.74.02.43-.31.8-.74.82-3.78.18-5.11,3.11-6.52,6.22-1.42,3.14-2.89,6.39-6.99,6.39h0Z"/>
            <g>
              <polygon class="cls-5" points="334.04 141.38 334.04 146.45 333.1 146.45 333.1 141.38 332.37 141.38 332.37 139.67 334.77 139.67 334.77 141.38 334.04 141.38"/>
              <rect class="cls-5" x="335.1" y="141.91" width=".93" height="4.54"/>
              <path class="cls-14" d="M330.47,142.93c.12.11.26.19.44.22.62.1.75.42.75.86,0,.53-.43,1.26-1.12,2.06,0,.08,0,.17.01.25,1.16-1.12,2.02-2.32,2.02-3.29,0-.7-.24-1.12-.87-1.26-.41-.09-.87-.01-.79-.7.08-.67.99-1.29,1.45-1.4v-1.38c-.68.44-1.32.95-1.75,1.57-.05,1.02-.12,2.04-.14,3.06Z"/>
              <path class="cls-5" d="M336.15,140.5c0,.61-.27,1.11-.59,1.11s-.59-.5-.59-1.11.26-1.11.59-1.11.59.5.59,1.11"/>
              <path class="cls-5" d="M336.93,136.54c-.47-1.44-2.91-.64-6.27,2.46,0,.02,0,.05,0,.07,2.85-2.29,5.29-3.17,5.79-1.89.17.45.11,1.34-.3,2.45.35-.64,1.04-2.32.79-3.09Z"/>
            </g>
            <path class="cls-3" d="M344.81,33.34c-29.61,0-48.65,21.22-48.65,46.32s14.77,39.3,37.85,43.07c4.26.7,8.33.87,13.16,1.02,13.89.42,25.34-3.35,33.33-9.65,9.66-7.61,14.85-19.81,14.85-34.44,0-26.52-21.5-46.32-50.54-46.32Z"/>
            <g>
              <path class="cls-6" d="M320.41,105.28c8.16-6.96,10.8-38.03.77-48.47-2.51-2.61-8.65-4.38-15.74-5.19-5.97,7.85-9.27,17.6-9.27,28.04,0,12.81,3.94,22.96,11.13,30.14,6.26-.84,10.4-2.21,13.12-4.52Z"/>
              <path class="cls-1" d="M316.13,73.59c-3.18,0-4.51,2.58-4.39,4.95.15,3.01,2.42,4.72,5.15,4.72s4.87-1.94,4.7-5.59c-.15-3.15-3.03-4.08-5.45-4.08Z"/>
              <g>
                <path class="cls-11" d="M302.46,65.79c-1.48,0-1.89,2.44-1.89,6.11s.95,4.68,2.03,4.68,1.35-2.44,1.35-5.09-.41-5.7-1.49-5.7Z"/>
                <path class="cls-11" d="M302.59,77.68c-2.07,0-3.12-1.94-3.12-5.77,0-2.52,0-7.2,2.98-7.2,1.71,0,2.58,2.29,2.58,6.79,0,3.06-.29,6.18-2.44,6.18h0ZM302.3,67.04c-.23.34-.63,1.44-.63,4.86,0,2.16.36,3.28.75,3.53.15-.33.44-1.32.44-3.94,0-2.26-.29-3.82-.56-4.45h0Z"/>
              </g>
            </g>
            <path class="cls-11" d="M360.73,123.82c-.51,0-.97-.36-1.07-.89-.11-.59.28-1.16.87-1.28,21.44-4.08,33.74-19.38,33.74-41.99,0-25.78-21.26-45.23-49.45-45.23s-47.56,19.02-47.56,45.23c0,23.16,13.12,38.07,36.93,41.99.6.1,1,.66.9,1.25-.1.6-.66,1-1.25.9-24.64-4.05-38.76-20.14-38.76-44.14,0-12.79,4.81-24.63,13.54-33.35,9.09-9.07,21.95-14.06,36.2-14.06,29.44,0,51.64,20.38,51.64,47.41,0,23.76-12.95,39.85-35.52,44.14-.07.01-.14.02-.21.02h0Z"/>
            <path class="cls-11" d="M343.72,181.15l-.91-2.85c5.02-.45,6.15,4.02,11.08,3.33,0,0-4.73,1.69-10.17-.48Z"/>
            <g>
              <path class="cls-3" d="M333.27,38.98c0-4.16,7.17-19.08,10.5-19.08,5.18,0,18.76,15.8,23.92,31.91"/>
              <path class="cls-11" d="M367.68,52.9c-.46,0-.89-.3-1.04-.76-5.26-16.41-18.74-31.15-22.88-31.15-2.2,0-9.4,13.78-9.4,17.99,0,.6-.49,1.09-1.09,1.09s-1.09-.49-1.09-1.09c0-4.3,7.25-20.17,11.59-20.17,6.06,0,19.77,16.46,24.96,32.67.18.57-.13,1.19-.71,1.37-.11.04-.22.05-.33.05h0Z"/>
            </g>
            <path class="cls-11" d="M349.54,183.35c-3.58,0-6.12-1.14-6.28-1.21-.28-.13-.49-.36-.58-.65l-5.08-15.52c-4.89-3.02-7.66-8.84-8.34-12.09-1.54-7.39-.53-16.79,3.39-31.43.16-.58.75-.93,1.34-.77.58.16.93.75.77,1.34-3.82,14.29-4.83,23.39-3.36,30.42.59,2.84,3.2,8.29,7.66,10.86.23.13.41.35.49.61l5.05,15.42c1.29.46,5.35,1.63,9.82-.01.5-2.08,2.33-9.66,3.79-16.03.06-.25.2-.48.41-.63.34-.26,8.44-6.57,4.07-17.89-1.62-4.18-3.04-15.62-2.4-23.03.05-.6.57-1.05,1.18-.99.6.05,1.05.58.99,1.18-.6,7.01.76,18.18,2.26,22.06,4.45,11.52-2.8,18.7-4.47,20.15-1.68,7.37-3.82,16.17-3.84,16.26-.08.34-.32.62-.64.75-2.22.92-4.36,1.23-6.21,1.23h0Z"/>
            <g>
              <path class="cls-3" d="M353.02,127.57s2.02,11.82,2.94,23.35c1.02,12.81-8.45,12.92-11.76,9.11-5.26-6.09-1.57-25.27-1.57-32.29"/>
              <path class="cls-11" d="M349.23,163.29c-2.2,0-4.44-.92-5.85-2.55-4.26-4.92-3.14-17.09-2.33-25.97.26-2.86.49-5.33.49-7.03,0-.6.49-1.09,1.09-1.09s1.09.49,1.09,1.09c0,1.8-.23,4.32-.5,7.23-.73,8.02-1.84,20.13,1.8,24.34,1.25,1.44,3.9,2.37,6.18,1.42,2.77-1.16,4.07-4.61,3.66-9.73-.9-11.34-2.91-23.13-2.93-23.25-.1-.59.3-1.16.89-1.26.59-.11,1.16.3,1.26.89.02.12,2.04,12.01,2.95,23.44.66,8.27-2.85,11.01-4.99,11.91-.89.37-1.85.55-2.82.55h0Z"/>
            </g>
            <path class="cls-11" d="M346.28,50.95h0c-.6,0-1.09-.49-1.09-1.09.03-14.83-.62-24.06-1.29-25.52-.25-.55,0-1.2.54-1.45.55-.25,1.2,0,1.45.54,1.46,3.21,1.49,22.58,1.48,26.43,0,.6-.49,1.09-1.09,1.09h0Z"/>
          </g>
          <path class="cls-11" d="M297.92,91.83c-.2,0-.41,0-.62-.01-.6-.03-1.07-.54-1.04-1.14.03-.6.55-1.06,1.14-1.04,7.06.33,8.63-6.15,8.78-6.89.12-.59.7-.97,1.29-.85.59.12.97.7.85,1.29-.68,3.26-3.62,8.64-10.41,8.64h0Z"/>
        </g>
        <g>
          <g>
            <path class="cls-15" d="M20.77,2.89v-1.29h6.09c0,2.29-.5,4.23-1.47,5.82-.97,1.59-2.36,2.93-4.16,4.01l-1.41-.83c.99-.51,1.85-1.14,2.58-1.89.73-.75,1.31-1.56,1.75-2.43-.63.08-1.28.13-1.94.16-.67.03-1.28.04-1.85.04v-1.29c.59,0,1.29-.02,2.09-.06.8-.04,1.55-.1,2.26-.18.11-.33.2-.67.26-1.01.06-.35.1-.69.13-1.04h-4.33ZM30.49.72v13.32h-1.6V.72h1.6Z"/>
            <path class="cls-15" d="M42.75,3.63c0,.36-.07.71-.2,1.04-.13.34-.32.64-.56.91-.24.27-.52.5-.85.7-.33.2-.68.34-1.07.43v1.36h5.16v1.29h-12.38v-1.29h5.47v-1.3c-.43-.07-.82-.21-1.17-.41-.35-.2-.65-.44-.9-.71-.26-.28-.46-.59-.59-.94-.14-.34-.2-.71-.2-1.09,0-.42.09-.82.27-1.21.18-.39.43-.73.76-1.02.32-.29.7-.52,1.15-.7.45-.17.93-.26,1.46-.26s.98.09,1.42.26c.44.18.83.41,1.16.7.33.29.59.63.78,1.02.19.39.29.79.29,1.21ZM43.54,14.07h-8.67v-3.73h1.65v2.43h7.02v1.3ZM37.2,3.63c0,.26.05.51.15.74.1.23.23.44.4.61.17.17.37.31.6.4.23.1.48.15.75.15s.5-.05.73-.15c.23-.1.43-.23.6-.4.18-.17.32-.37.42-.61.1-.23.15-.48.15-.74s-.05-.49-.15-.73c-.1-.23-.24-.44-.42-.61-.17-.17-.37-.31-.6-.41-.23-.1-.47-.16-.73-.16s-.52.05-.75.16c-.23.1-.43.24-.6.41-.17.17-.3.37-.4.61-.1.24-.15.48-.15.73Z"/>
          </g>
          <path class="cls-12" d="M0,4.28c0-.22.16-.49.36-.59L7.31.08c.2-.1.52-.1.71,0l6.95,3.62c.2.1.36.37.36.59v7.18c0,.22-.16.49-.36.59l-6.95,3.62c-.2.1-.52.1-.71,0L.36,12.05c-.2-.1-.36-.37-.36-.59v-7.18Z"/>
        </g>
        <g>
          <g>
            <path class="cls-15" d="M20.95,224.41v-1.3h1.72c.6,0,1.22,0,1.84-.02.63,0,1.25-.03,1.87-.05.62-.02,1.21-.07,1.79-.13l.11-1.05h-7.11v-1.29h8.85c-.01.39-.03.81-.07,1.25-.04.45-.08.89-.14,1.34-.05.45-.11.89-.19,1.32-.08.43-.15.82-.22,1.17h2.33v1.23h-12.38v-1.23h8.35c.02-.11.04-.23.07-.34.03-.12.05-.24.07-.36.03-.12.06-.24.08-.37.02-.12.04-.25.08-.38-.56.06-1.14.1-1.75.13-.61.02-1.21.05-1.82.07-.61.01-1.21.02-1.8.02h-1.66ZM30.1,233.77h-8.73v-3.51h6.78v-1.02h-6.81v-1.23h8.46v3.45h-6.78v1.07h7.08v1.24Z"/>
            <path class="cls-15" d="M38.25,224.98v-2.6h-4.48v-1.29h6.1v5.16h-4.45v2.62h1.42c.33,0,.69,0,1.08-.01.39,0,.79-.03,1.19-.06.4-.03.79-.07,1.18-.12.39-.05.76-.12,1.11-.2v1.3c-.33.07-.7.13-1.1.17-.41.04-.82.08-1.24.11-.42.03-.84.05-1.27.07-.43.01-.82.02-1.19.02h-2.83v-5.19h4.48ZM42.04,220.3h1.62v4.74h1.95v1.38h-1.95v7.2h-1.62v-13.32Z"/>
            <path class="cls-15" d="M56.25,223.21c0,.36-.07.71-.2,1.04-.13.34-.32.64-.56.91-.24.27-.52.5-.85.7-.33.2-.68.34-1.07.43v1.37h5.16v1.29h-12.38v-1.29h5.47v-1.3c-.43-.07-.82-.2-1.17-.41-.35-.2-.65-.43-.9-.71-.26-.28-.46-.59-.59-.94-.14-.34-.2-.71-.2-1.09,0-.42.09-.83.27-1.21.18-.39.43-.73.76-1.02.32-.29.7-.52,1.15-.7.45-.17.93-.26,1.46-.26s.98.09,1.42.26c.44.18.83.41,1.16.7.33.29.59.63.78,1.02.19.39.29.79.29,1.21ZM57.04,233.65h-8.67v-3.74h1.65v2.43h7.02v1.3ZM50.7,223.21c0,.26.05.51.15.74.1.23.23.44.4.61s.37.3.6.4c.23.1.48.15.75.15s.5-.05.73-.15c.23-.1.43-.23.6-.4.18-.17.32-.37.42-.61.1-.24.15-.48.15-.74s-.05-.49-.15-.73c-.1-.23-.24-.44-.42-.61-.17-.17-.37-.31-.6-.41-.23-.11-.47-.16-.73-.16s-.52.05-.75.16c-.23.1-.43.24-.6.41-.17.17-.3.37-.4.61-.1.24-.15.48-.15.73Z"/>
          </g>
          <path class="cls-12" d="M0,223.87c0-.22.16-.49.36-.59l6.95-3.62c.2-.1.52-.1.71,0l6.95,3.62c.2.1.36.37.36.59v7.18c0,.22-.16.49-.36.59l-6.95,3.62c-.2.1-.52.1-.71,0l-6.95-3.62c-.2-.1-.36-.37-.36-.59v-7.18Z"/>
        </g>
        <g>
          <g>
            <path class="cls-15" d="M22,341.98v7.71h.96c.36,0,.78-.02,1.26-.07.48-.04.92-.12,1.32-.22v1.3c-.37.09-.82.16-1.35.21-.53.05-1.04.08-1.53.08h-2.22v-9.02h1.56ZM27.55,347.28v6.83h-1.5v-12.68h1.5v4.53h1.6v-4.74h1.51v13.32h-1.51v-7.26h-1.6Z"/>
            <path class="cls-15" d="M42.75,344.13c0,.36-.07.71-.2,1.04-.13.34-.32.64-.56.91-.24.27-.52.5-.85.7s-.68.34-1.07.43v1.37h5.16v1.29h-12.38v-1.29h5.47v-1.3c-.43-.07-.82-.21-1.17-.41-.35-.2-.65-.43-.9-.71-.26-.28-.46-.59-.59-.94-.14-.34-.2-.71-.2-1.09,0-.42.09-.83.27-1.21.18-.39.43-.73.76-1.02.32-.29.7-.52,1.15-.7.45-.17.93-.26,1.46-.26s.98.09,1.42.26c.44.18.83.41,1.16.7.33.29.59.63.78,1.02.19.39.29.79.29,1.21ZM43.54,354.57h-8.67v-3.74h1.65v2.43h7.02v1.3ZM37.2,344.13c0,.26.05.51.15.74.1.23.23.44.4.61s.37.3.6.4c.23.1.48.15.75.15s.5-.05.73-.15c.23-.1.43-.23.6-.4.18-.17.32-.37.42-.61.1-.24.15-.48.15-.74s-.05-.49-.15-.73c-.1-.23-.24-.44-.42-.61-.17-.17-.37-.31-.6-.41-.23-.11-.47-.16-.73-.16s-.52.05-.75.16c-.23.1-.43.24-.6.41-.17.17-.3.37-.4.61-.1.24-.15.48-.15.73Z"/>
          </g>
          <path class="cls-12" d="M0,344.78c0-.22.16-.49.36-.59l6.95-3.62c.2-.1.52-.1.71,0l6.95,3.62c.2.1.36.37.36.59v7.18c0,.22-.16.49-.36.59l-6.95,3.62c-.2.1-.52.1-.71,0l-6.95-3.62c-.2-.1-.36-.37-.36-.59v-7.18Z"/>
        </g>
      </g>
    </g>
  </g>
</svg>